<?xml version="1.0" encoding="utf-8"?>
<!-- Generator: Adobe Illustrator 22.1.0, SVG Export Plug-In . SVG Version: 6.00 Build 0)  -->
<svg version="1.1" xmlns="http://www.w3.org/2000/svg" xmlns:xlink="http://www.w3.org/1999/xlink" x="0px" y="0px"
	 viewBox="0 0 100 100" style="enable-background:new 0 0 100 100;" xml:space="preserve">
<style type="text/css">
	.st0{fill:none;}
	.st1{fill:none;stroke:#BBB9BE;stroke-width:0.25;stroke-miterlimit:10;}
	.st2{fill:#BBB9BE;}
	.st3{opacity:0.5;fill:url(#SVGID_1_);stroke:#BBB9BE;stroke-width:0.2518;stroke-miterlimit:10;}
	.st4{opacity:0.5;fill:url(#SVGID_2_);stroke:#BBB9BE;stroke-width:0.2518;stroke-miterlimit:10;}
	.st5{opacity:0.5;fill:url(#SVGID_3_);stroke:#BBB9BE;stroke-width:0.2518;stroke-miterlimit:10;}
	.st6{opacity:0.5;fill:url(#SVGID_4_);stroke:#BBB9BE;stroke-width:0.2518;stroke-miterlimit:10;}
	.st7{opacity:0.5;fill:url(#SVGID_5_);stroke:#BBB9BE;stroke-width:0.2518;stroke-miterlimit:10;}
	.st8{opacity:0.5;fill:url(#SVGID_6_);stroke:#BBB9BE;stroke-width:0.2518;stroke-miterlimit:10;}
	.st9{opacity:0.5;fill:url(#SVGID_7_);stroke:#BBB9BE;stroke-width:0.2518;stroke-miterlimit:10;}
	.st10{opacity:0.5;fill:url(#SVGID_8_);stroke:#BBB9BE;stroke-width:0.2518;stroke-miterlimit:10;}
	.st11{opacity:0.5;fill:url(#SVGID_9_);stroke:#BBB9BE;stroke-width:0.2518;stroke-miterlimit:10;}
	.st12{opacity:0.5;fill:url(#SVGID_10_);stroke:#BBB9BE;stroke-width:0.2518;stroke-miterlimit:10;}
	.st13{fill:#203F49;}
	.st14{fill:none;stroke:#203F49;stroke-width:3;stroke-linecap:round;stroke-linejoin:round;stroke-miterlimit:10;}
	.st15{opacity:0.5;fill:url(#SVGID_11_);stroke:#BBB9BE;stroke-width:0.2518;stroke-miterlimit:10;}
	.st16{fill:url(#New_Pattern_Swatch_2);}
	.st17{fill:#FFFFFF;stroke:#203F49;stroke-width:1.1315;stroke-miterlimit:10;}
	.st18{fill:#FFFFFF;stroke:#203F49;stroke-width:1.2685;stroke-miterlimit:10;}
	.st19{fill:#FFFFFF;stroke:#203F49;stroke-width:1.4774;stroke-miterlimit:10;}
	.st20{fill:#FFFFFF;stroke:#203F49;stroke-width:1.7001;stroke-miterlimit:10;}
	.st21{fill:none;stroke:#203F49;stroke-width:2;stroke-miterlimit:10;}
	.st22{opacity:0.75;fill:#BBB9BE;}
	.st23{fill:#FFFFFF;}
	.st24{fill:#FB9985;stroke:#203F49;stroke-width:2;stroke-miterlimit:10;}
	.st25{fill:#2E3192;stroke:#203F49;stroke-width:2;stroke-miterlimit:10;}
	.st26{fill:#6688CC;stroke:#203F49;stroke-width:2;stroke-miterlimit:10;}
	.st27{fill:#004E29;stroke:#203F49;stroke-width:2;stroke-miterlimit:10;}
	.st28{fill:#C39EA0;stroke:#203F49;stroke-width:2;stroke-miterlimit:10;}
	.st29{fill:#662E1C;stroke:#203F49;stroke-width:2;stroke-miterlimit:10;}
	.st30{fill:#B4D0E7;stroke:#203F49;stroke-width:2;stroke-miterlimit:10;}
	.st31{fill:#B3E3B5;stroke:#203F49;stroke-width:2;stroke-miterlimit:10;}
	.st32{fill:#5DAA68;stroke:#203F49;stroke-width:2;stroke-miterlimit:10;}
	.st33{opacity:0.75;fill:#BBB9BE;stroke:#203F49;stroke-width:2;stroke-miterlimit:10;}
	.st34{fill:none;stroke:#FAFAFA;stroke-width:5;stroke-linecap:round;stroke-miterlimit:10;}
	.st35{fill:#FFFFFF;stroke:#FFFFFF;stroke-width:0.25;stroke-linecap:round;stroke-miterlimit:10;}
	.st36{fill:none;stroke:#FFFFFF;stroke-width:2;stroke-miterlimit:10;}
	.st37{fill:url(#SVGID_16_);}
	.st38{fill:url(#SVGID_17_);}
	.st39{opacity:0.75;fill:#F3CC6F;}
	.st40{fill:#646C79;stroke:#203F49;stroke-width:2;stroke-miterlimit:10;}
	.st41{fill:#C39EA0;}
	.st42{fill:#FFFFFF;stroke:#203F49;stroke-miterlimit:10;}
	.st43{fill:#004E29;}
	.st44{fill:#5DAA68;}
	.st45{fill:#B3E3B5;}
	.st46{fill:#2E3192;}
	.st47{fill:#6688CC;}
	.st48{fill:#B4D0E7;}
	.st49{fill:#662E1C;}
	.st50{fill:#FB9985;}
	.st51{opacity:0.75;fill:#FFFFFF;}
	.st52{fill:#FFFFFF;stroke:#203F49;stroke-width:2;stroke-miterlimit:10;}
	.st53{fill:none;stroke:#FFFFFF;stroke-width:3;stroke-linecap:round;stroke-linejoin:round;stroke-miterlimit:10;}
	.st54{fill:#FFFFFF;stroke:#203F49;stroke-width:0.8397;stroke-miterlimit:10;}
	.st55{fill:#004E29;stroke:#203F49;stroke-width:0.8397;stroke-miterlimit:10;}
	.st56{fill:none;stroke:#203F49;stroke-width:0.8397;stroke-miterlimit:10;}
	.st57{fill:#B3E3B5;stroke:#203F49;stroke-width:0.8397;stroke-miterlimit:10;}
	.st58{fill:#5DAA68;stroke:#203F49;stroke-width:0.8397;stroke-miterlimit:10;}
	.st59{opacity:0.75;fill:#FFFFFF;stroke:#203F49;stroke-width:0.8397;stroke-miterlimit:10;}
	.st60{fill:#646C79;stroke:#203F49;stroke-width:0.8397;stroke-miterlimit:10;}
	.st61{fill:#FFFFFF;stroke:#203F49;stroke-width:0.8539;stroke-miterlimit:10;}
	.st62{opacity:0.75;fill:#FFFFFF;stroke:#203F49;stroke-width:2;stroke-miterlimit:10;}
	.st63{fill:none;stroke:#203F49;stroke-width:2.5;stroke-linecap:round;stroke-linejoin:round;stroke-miterlimit:10;}
	.st64{fill:#F3CC6F;}
	.st65{fill:none;stroke:#646C79;stroke-miterlimit:10;}
	.st66{fill:#FFFFFF;stroke:#646C79;stroke-width:0.5;stroke-miterlimit:10;}
	.st67{fill:#004E29;stroke:#F3CC6F;stroke-width:2;stroke-miterlimit:10;}
	.st68{fill:none;stroke:#000000;stroke-miterlimit:10;}
	.st69{fill:#646C79;}
	.st70{opacity:0.75;fill:#F3CC6F;stroke:#646C79;stroke-width:1.359;}
	.st71{opacity:0.75;}
	.st72{opacity:0.8;}
	.st73{opacity:0.2;fill:#6688CC;}
	.st74{fill:none;stroke:#BBB9BE;stroke-width:1.0271;stroke-miterlimit:10;}
	.st75{display:none;}
	.st76{display:inline;fill:#F1F1F1;}
	.st77{display:inline;fill:#BBB9BE;}
	.st78{display:inline;fill:#A1D5E2;}
	.st79{display:inline;fill:#1894AC;}
	.st80{display:inline;fill:#646C79;}
	.st81{display:inline;fill:#F3CC6F;}
	.st82{display:inline;fill:#203F49;}
	.st83{display:inline;fill:#1F3044;}
	.st84{display:inline;fill:#FB8122;}
	.st85{display:inline;fill:#FB9985;}
	.st86{display:inline;fill:#DE7921;}
	.st87{display:inline;fill:#20948B;}
	.st88{display:inline;fill:#6AB086;}
	.st89{display:inline;fill:#5DAA68;}
	.st90{display:inline;fill:#4BB4F5;}
	.st91{display:inline;fill:#B6B8B5;}
	.st92{display:inline;fill:#B3C100;}
	.st93{display:inline;fill:#B3E3B5;}
	.st94{display:inline;fill:#324750;}
	.st95{display:inline;fill:#86AB40;}
	.st96{display:inline;fill:#33665C;}
	.st97{display:inline;fill:#7DA2A1;}
	.st98{display:inline;fill:#B4D0E7;}
	.st99{display:inline;fill:#6688CC;}
	.st100{display:inline;fill:#C39EA0;}
	.st101{display:inline;fill:#662E1C;}
</style>
<pattern  x="-3049.7" y="-261.3" width="50" height="49.9" patternUnits="userSpaceOnUse" id="New_Pattern_Swatch_2" viewBox="12.9 -62.7 50 49.9" style="overflow:visible;">
	<g>
		<rect x="12.9" y="-62.7" class="st0" width="50" height="49.9"/>
		<g>
			<rect x="25.4" y="-25.1" class="st1" width="25" height="25"/>
		</g>
		<g>
			<rect x="50.1" y="-50" class="st1" width="25" height="25"/>
		</g>
		<g>
			<rect x="25.4" y="-75" class="st1" width="25" height="25"/>
			<g>
				<circle class="st2" cx="50.2" cy="-25.1" r="3"/>
				<g>
					<path class="st2" d="M52.9-25.1C53-25,53-25,52.9-25.1L52.9-25.1L52.9-25.1z"/>
					<path class="st2" d="M53.1-25.2c-0.1,0-0.2-0.1-0.3,0C53-25.2,52.9-25.2,53.1-25.2c0,0.1-0.1,0.1-0.1,0.1c0,0,0,0,0.1,0.1
						C53.1-25.1,53.1-25.2,53.1-25.2C53.1-25.2,53.1-25.2,53.1-25.2z"/>
					<path class="st2" d="M52-27.6L52-27.6C52-27.6,52-27.6,52-27.6z"/>
					<path class="st2" d="M50.4-28.3C50.4-28.3,50.4-28.3,50.4-28.3C50.4-28.3,50.4-28.3,50.4-28.3z"/>
					<path class="st2" d="M50.1-28.4C50.1-28.4,50.1-28.4,50.1-28.4C50.1-28.4,50.1-28.4,50.1-28.4z"/>
					<path class="st2" d="M52-27.6L52-27.6C52-27.7,52-27.6,52-27.6z"/>
					<path class="st2" d="M52.8-25.5C52.8-25.5,52.8-25.5,52.8-25.5L52.8-25.5L52.8-25.5z"/>
					<path class="st2" d="M52.6-27.2L52.6-27.2C52.7-27.2,52.7-27.2,52.6-27.2L52.6-27.2z"/>
					<path class="st2" d="M53-26.7c0,0-0.1,0-0.1,0C52.9-26.6,52.9-26.7,53-26.7C53-26.7,53-26.7,53-26.7z"/>
					<path class="st2" d="M53.2-25.7L53.2-25.7L53.2-25.7z"/>
					<path class="st2" d="M52.4-27.5C52.4-27.5,52.4-27.5,52.4-27.5C52.4-27.5,52.4-27.5,52.4-27.5z"/>
					<path class="st2" d="M52.6-24.5L52.6-24.5C52.7-24.5,52.6-24.5,52.6-24.5z"/>
					<polygon class="st2" points="53.2,-25.1 53.2,-25 53.3,-25 					"/>
					<path class="st2" d="M49.5-28.5L49.5-28.5C49.5-28.5,49.5-28.5,49.5-28.5z"/>
					<path class="st2" d="M46.8-24.3c0.1-0.1,0.1,0.1,0.2,0C47-24.4,46.9-24.4,46.8-24.3z"/>
					<path class="st2" d="M52.8-25.6L52.8-25.6C52.8-25.6,52.8-25.6,52.8-25.6z"/>
					<path class="st2" d="M47-24.4L47-24.4L47-24.4C47.1-24.4,47-24.4,47-24.4z"/>
					<path class="st2" d="M48.2-27.9C48.3-27.9,48.3-27.9,48.2-27.9C48.3-27.9,48.3-27.9,48.2-27.9z"/>
					<path class="st2" d="M49.2-28.2L49.2-28.2C49.2-28.2,49.2-28.2,49.2-28.2z"/>
					<path class="st2" d="M47.9-27.4C47.9-27.4,47.9-27.5,47.9-27.4C47.9-27.4,47.9-27.4,47.9-27.4C47.9-27.4,47.9-27.4,47.9-27.4z"
						/>
					<polygon class="st2" points="47.6,-27.1 47.6,-27.1 47.6,-27.1 					"/>
					<path class="st2" d="M52.1-23.4C52.2-23.4,52.2-23.4,52.1-23.4C52.2-23.4,52.2-23.4,52.1-23.4z"/>
					<path class="st2" d="M52.9-25.6C52.9-25.6,52.8-25.6,52.9-25.6C52.8-25.6,52.8-25.6,52.9-25.6C52.9-25.5,52.9-25.6,52.9-25.6z"
						/>
					<path class="st2" d="M48.5-26.9L48.5-26.9C48.4-26.8,48.4-26.8,48.5-26.9z"/>
					<path class="st2" d="M49.5-22.6L49.5-22.6C49.5-22.6,49.5-22.6,49.5-22.6z"/>
					<path class="st2" d="M48.3-26.7C48.2-26.7,48.2-26.7,48.3-26.7C48.2-26.7,48.2-26.7,48.3-26.7L48.3-26.7z"/>
					<path class="st2" d="M52.2-23.3L52.2-23.3L52.2-23.3z"/>
					<path class="st2" d="M52.4-23.7c0-0.1,0,0,0.1,0c-0.1-0.1,0.1,0-0.1-0.1c0.1,0,0.1,0,0.2,0c-0.1,0-0.1-0.1-0.2-0.2
						c0.1,0,0.1,0.1,0.3,0.1c-0.1-0.1-0.1-0.1-0.2-0.2c0,0,0.1,0,0.1,0c0,0,0,0,0,0c-0.1-0.1,0.1-0.2-0.1-0.3c0.2,0.1,0.1-0.1,0.2,0
						c0,0-0.1-0.1-0.1-0.1c0.2,0,0.1-0.1,0.1-0.1c-0.1,0,0-0.1-0.1-0.1c0,0,0,0,0.1,0c-0.1,0,0,0,0.1-0.1c0-0.1-0.1,0-0.2,0
						c0,0,0.1,0,0.2,0l-0.2-0.1c0,0,0,0,0.1,0c0,0-0.1,0,0-0.1l0,0.1l0.1,0L52.8-25c0.1-0.1,0.3-0.1,0.5-0.1l0,0
						c0.1,0,0.1,0,0.1-0.1c0,0,0.2,0.1,0.2,0.1c0,0.1-0.2,0-0.2,0.1c0,0,0.1,0.1,0.1,0.1l-0.1,0c0,0,0,0,0,0c-0.1,0,0,0.1-0.1,0.1
						l0.1,0c0.1,0.2-0.2,0.2-0.2,0.3l0.1,0.1l-0.1,0c0,0.1,0.1,0.1,0.1,0.2c-0.3,0.2-0.2,0.5-0.4,0.7c0,0,0,0,0.1,0
						c-0.3,0,0,0.5-0.3,0.5l0,0c-0.1,0.1,0,0-0.1,0c0.1,0.1,0,0.2,0,0.2c0,0,0,0,0-0.1c0,0-0.1-0.1-0.1,0c0.1,0.2-0.1,0.3-0.1,0.4
						c-0.1-0.1-0.2-0.1-0.3-0.2c0,0,0,0.1,0,0.2c-0.1,0-0.1,0-0.1,0.1c0,0,0.1,0,0.1-0.1l0,0c0,0,0,0,0,0c0,0,0,0,0,0
						c0.1,0,0,0.1,0.1,0.1c0,0-0.1,0.1-0.1,0c0,0,0,0-0.1,0c0,0,0,0,0,0l0,0c0,0,0,0,0,0c-0.1,0-0.1,0.2-0.1,0.3
						c0-0.1-0.1-0.1-0.1-0.2c0,0,0.1,0,0.2-0.1c0,0,0,0,0,0c-0.1-0.1-0.1,0.1-0.2,0.1c0,0,0,0,0-0.1c0,0-0.1,0.1,0,0.1
						c0-0.1-0.1-0.1-0.2-0.1c0,0.1,0,0.1-0.1,0.1l0-0.1c-0.1,0,0,0.1-0.1,0.1c0,0,0,0,0-0.1c-0.1,0.1-0.1,0.1-0.1,0.2l0-0.1
						c-0.1,0.1-0.2,0.2-0.2,0.1c0.1,0.2-0.2,0.1-0.2,0.1c0,0,0-0.1,0-0.1c-0.1,0.1-0.3,0-0.4,0l0-0.2c-0.1,0-0.1,0.3-0.2,0.3l0-0.1
						c-0.1,0-0.2,0-0.3-0.1l0-0.1c0,0-0.1,0-0.1,0.1c0-0.3-0.4,0-0.5-0.3l-0.1,0.2c-0.1,0-0.2,0-0.1-0.2l0,0c0.1-0.1-0.1,0-0.1-0.1
						c0,0-0.1,0.1-0.1,0.1c-0.1-0.2-0.4-0.2-0.4-0.4c-0.2,0-0.4,0-0.5-0.2l0,0c0-0.1-0.1-0.2,0-0.3c-0.1-0.1-0.3,0-0.4-0.2l0.1,0
						c0-0.1-0.1-0.1-0.1-0.1c0,0,0,0,0,0c0-0.1-0.1,0-0.1-0.1l0.1,0c0-0.2-0.3-0.2-0.3-0.4c0,0,0.1,0,0.1,0c-0.2,0-0.2-0.2-0.3-0.2
						l0.1,0c-0.2-0.1,0.1-0.2,0-0.3L46.8-24c0-0.1,0-0.1-0.1-0.1c0-0.1,0.1,0,0.1-0.1c0,0,0,0.1,0.1,0l0.1-0.2c0,0,0,0,0-0.1
						c-0.2,0.1,0-0.1-0.2,0c0-0.2,0.1-0.4,0-0.5c0.2-0.1,0-0.3,0.3-0.3c0-0.1,0-0.2-0.1-0.2c0,0,0,0,0,0.1c-0.1,0-0.1-0.1-0.1-0.2
						c0.1,0.1,0.1,0.2,0.2,0.2c0-0.1-0.1-0.2-0.1-0.2l0.1,0c-0.1-0.1,0.1,0,0-0.1l0,0c0-0.1-0.1-0.1-0.1-0.3l0.1,0
						c0,0-0.1-0.1,0.1-0.1l0,0.1c0.1,0,0.2,0,0.2,0c0-0.1-0.1-0.1-0.1-0.1c0.1,0,0,0,0.1,0.1c0-0.1,0-0.2-0.1-0.3c0,0,0,0,0,0
						c0.1-0.1-0.1-0.2,0-0.2l0,0c0.1,0,0-0.2,0.2-0.1c0.1,0,0,0.1,0.1,0.1c0.1,0-0.1-0.2,0-0.2c0,0,0,0,0,0c0-0.1,0.1-0.1,0.1-0.2
						c0.2,0,0.2-0.2,0.4-0.2c-0.1,0,0-0.1-0.1-0.1c0,0,0,0,0,0c0,0,0-0.1,0-0.1c0.1,0,0-0.1,0.1-0.1c0,0,0,0,0-0.1
						c0,0.1,0.1,0.1,0.1,0.2c0.1-0.1,0-0.2,0.1-0.3l0.1,0c-0.1-0.1,0-0.1,0-0.2c0,0,0.1,0,0.1,0.1c0-0.1,0.1,0,0.1-0.1l-0.1,0
						c0.1,0,0.1-0.2,0.3-0.2l0.1,0.2c0.1,0,0.1-0.2,0.2-0.1c0-0.1,0,0,0-0.1c0,0-0.1,0.1-0.1,0.1l0-0.2L48.7-28c0-0.1,0-0.1,0-0.1
						c0.1-0.1,0.1,0,0.2-0.1c0,0,0,0.1,0.1,0.1c0-0.1,0.2,0.1,0.2,0c0,0,0,0,0,0.1c0,0,0.1,0,0.1-0.1l0,0c0,0,0-0.1,0.1-0.1
						c0-0.1,0-0.2,0-0.2c0,0,0.1,0,0.1,0.1c0.1,0,0-0.2,0.1-0.2c0,0,0,0,0,0c0,0,0.1,0,0.1,0c-0.1,0,0.1,0.2-0.1,0.1
						c0,0.1,0.1,0,0.1,0c0-0.1,0-0.2,0-0.2c0,0,0,0,0.1,0l0-0.1c0,0,0,0,0.1,0l0,0c0.1,0,0.1,0.1,0.2,0c0,0-0.1,0.1,0,0.1
						c0.1-0.1,0,0,0.1,0.1c0.1,0,0-0.2,0.1-0.1c0,0,0,0,0-0.1c0.1,0,0.1,0,0.2,0c0,0-0.1-0.1,0-0.1c0,0.1,0.1,0.1,0.1,0.1l0,0
						c0,0,0,0.1,0,0.1c0,0,0,0,0,0c0,0,0,0.2,0,0.2c0.1,0,0.1-0.1,0.1-0.2c0.1,0.1,0.1-0.2,0.2-0.1c0,0,0.1,0.2,0.1,0.2
						c0.1-0.1-0.1-0.1,0-0.2c0.1,0.3,0.3-0.1,0.4,0.1l-0.1,0.1c0,0,0.1,0,0.1,0l0-0.1c0,0,0.1,0,0.1,0.1c0.1-0.1,0.1,0,0.2,0
						c-0.1,0,0,0-0.1,0c0.1,0.1,0.1,0.1,0.1,0c0,0,0,0.1,0,0.1c0.1,0,0.2,0,0.2,0l0,0c0.1,0,0.2,0.2,0.3,0.2l0,0l0,0l0,0l0,0
						c0-0.1,0.1,0,0.2,0c0,0,0,0.1,0,0.1c0.1-0.1,0.1,0,0.1,0c0,0.1-0.1,0.1,0,0.1c0,0,0.1,0,0.1-0.1c0,0.1,0,0.1,0,0.1c0,0,0,0,0,0
						c0,0,0,0-0.1,0.1c0,0,0.1-0.1,0.1,0l-0.1,0c0,0,0,0,0,0c0,0-0.1,0.1-0.1,0.1c0.1,0,0.2-0.1,0.2-0.2c0,0.1,0.1,0.1,0.2,0.1
						l-0.1,0.1c0,0,0.1,0,0.1,0l0,0c0,0-0.1,0-0.1,0.1c0.1,0,0.1,0.1,0.2,0l0,0c0,0.1,0.1,0.2,0,0.3c0.1,0,0.1,0.2,0.2,0.1
						c0.1,0-0.1,0.2,0.1,0.1c-0.1,0.1,0,0-0.1,0c-0.1,0.1,0.2,0,0,0.1c0.1,0,0,0,0.1,0c-0.1,0.1,0,0.1,0,0.2c0.1,0,0,0,0.1,0
						c0,0,0,0,0,0.1l0.1,0L52.9-26c0.2,0,0.2-0.1,0.3,0l0,0c-0.1,0.1,0.1,0.1,0,0.2c0,0-0.1,0-0.1,0l0.1,0c0,0,0,0,0,0
						c-0.1,0.1,0.1,0,0,0.1c0,0-0.1,0-0.1,0l0.1,0l-0.1,0c0,0.1,0.2,0.1,0.1,0.2l0,0c0,0-0.1,0-0.1,0.1c0,0,0.1,0,0.1,0l0,0
						c-0.1,0-0.1-0.1-0.2-0.1c0,0,0.1,0,0.1,0c0,0-0.1-0.1-0.1-0.1c0,0,0.1,0,0.1,0c0-0.1-0.1,0-0.1-0.1c0,0,0.1,0,0.1,0
						c0,0-0.1-0.1,0-0.1c0,0,0.1,0,0.1,0c-0.1-0.1-0.2-0.1-0.3-0.1c-0.2,0,0-0.2-0.1-0.3c0,0,0,0.1-0.1,0c0.1,0,0,0,0.1-0.1
						c-0.1,0,0-0.1-0.1-0.1c0,0,0,0,0.1-0.1c0.1,0,0-0.1,0.2-0.1c-0.2,0,0-0.2-0.3-0.1l0,0l0-0.1l0,0c0,0,0,0,0-0.1c0,0,0.1,0,0.1,0
						c0.1-0.1-0.1,0-0.2-0.1c0.1,0,0.1,0,0.1,0c0,0-0.1,0-0.1,0l0,0c0-0.1-0.2,0.1-0.1,0c0,0,0,0-0.1,0c0,0,0-0.1,0.1-0.1
						c0,0-0.1,0-0.1,0c0,0.1,0,0-0.1,0.1l-0.1-0.1c0,0,0,0,0,0c0.1-0.3-0.3-0.1-0.3-0.4c0,0.1,0,0-0.1,0.1c0,0-0.1-0.1-0.1-0.1l0,0
						c-0.1,0-0.3,0-0.3-0.1c0,0,0-0.1,0.1-0.1c-0.1,0.1,0-0.2-0.1-0.1l0,0c-0.1-0.1-0.3,0-0.4,0c0-0.1,0.1,0,0.1-0.1
						c-0.1-0.1-0.2,0-0.3-0.1c0,0,0,0,0,0c-0.1-0.1,0,0.1-0.1,0.1c0-0.1,0-0.1,0-0.1l0,0.1c0,0,0-0.1,0-0.1c-0.1,0.1-0.1,0-0.2,0.1
						c0,0,0-0.1,0-0.2c0,0-0.1,0-0.1,0l0,0c0-0.1-0.1-0.1-0.1-0.1c-0.1,0,0,0.1-0.1,0.1l0.1,0.1l-0.1,0l0-0.1c0,0-0.1,0-0.2,0l0,0.1
						c0,0,0,0-0.1,0c0-0.1-0.1,0,0-0.2c-0.1-0.1-0.2,0.1-0.3,0.1c0,0,0,0,0,0c-0.1,0-0.1,0.1-0.1,0.1c0,0,0-0.1,0-0.1
						c-0.1,0,0,0.1-0.1,0.1c0-0.1,0-0.1,0-0.1c0,0,0,0.1,0,0.1c0-0.3-0.1-0.1-0.1-0.3c0,0.1-0.1,0.2,0,0.3l0,0c0,0.1,0,0,0,0.1
						c0,0,0,0,0,0c-0.1,0.1-0.2,0.1-0.3,0.2c0,0,0-0.1,0-0.1c-0.1,0-0.1,0.2-0.2,0.3c-0.1-0.1,0.1-0.1,0-0.2
						c-0.1,0.1-0.2,0.2-0.3,0.4c-0.2-0.2,0,0.2-0.2,0.1c0.1,0.1,0,0.1,0,0.1c0-0.1-0.1,0-0.1-0.1c0,0.1,0,0.2-0.2,0.1
						c0.1,0.1-0.1,0.1,0,0.2c-0.1,0,0,0.1-0.1,0.1c0.1,0,0,0.1,0,0.1c0,0,0,0,0,0c-0.1,0,0,0.1,0,0.1c0,0-0.1-0.1-0.1,0
						c0.1,0,0.1,0.2,0,0.2c0,0,0,0,0-0.1c0,0.2-0.2,0.3-0.1,0.5l-0.1-0.1c-0.2,0.1,0.2,0.1,0.1,0.2c-0.1,0.2-0.3,0.5-0.2,0.7
						c0,0,0,0,0.1,0c0,0-0.1,0,0,0.1l0.1,0c-0.2,0.1,0.1,0.3-0.1,0.4c0.1,0.1,0,0.2,0.2,0.3c0,0.1-0.1,0-0.1,0l0.1,0.1l0,0
						c0.2,0-0.1,0.4,0.1,0.4l0,0c0,0-0.1,0.1,0,0.1c0,0,0,0,0.1-0.1c0.1,0.1,0.2,0.1,0.2,0.2c-0.1,0,0,0.1-0.1,0.1
						c0.1,0,0.1-0.1,0.1-0.1c0.1,0.1,0.1,0.2,0.1,0.2c0.1,0,0.1,0,0.2-0.1c0.1,0.1,0.1,0.1,0.2,0.1l0,0c0.1-0.1,0,0.1,0.1,0.1
						c0,0,0,0-0.1,0.1l0.1,0c0,0-0.1,0.1-0.1,0.1c0.1,0,0-0.1,0.1-0.1l-0.1,0.1c0,0,0.1-0.1,0.1-0.1c0.1,0.1,0.2,0.1,0.3,0.1l0,0.1
						c0.1,0,0.1,0,0.1,0.1c0,0,0-0.1,0-0.1c0.1-0.1,0,0.1,0.1,0c0,0-0.1,0-0.1,0.1l0.2,0c0,0.1,0,0.2,0.1,0.2c0,0,0-0.1,0-0.1l0,0
						l0,0.1l0.1-0.1l0,0.1c0,0,0.1-0.1,0.1-0.1c0.1,0.1,0.1,0.1,0.2,0.2c0-0.2,0.1,0,0.2-0.1c0.1,0.2,0.3,0.1,0.5,0.1l0,0
						c0.1,0.1,0.1-0.2,0.1-0.1l0,0c0.1,0.1,0.3,0,0.3-0.1c0,0,0,0.1,0,0.1c0,0-0.1-0.1,0-0.1c0,0,0,0.1,0,0.1l0-0.1
						c0.1,0,0.3,0,0.4-0.1c0,0,0,0.1,0.1,0.1c0.1-0.1,0.1-0.2,0.2-0.3l0.1,0.1c0,0-0.1-0.2,0-0.1c0,0,0,0,0,0.1c0.1,0,0-0.1,0.1-0.2
						l0.1,0.1c0.1,0,0-0.1,0-0.2c0-0.2,0.2,0.2,0.2,0c0-0.1-0.1-0.1-0.1-0.1c0.1,0,0-0.1,0.1-0.2c0.2,0.1,0,0,0.1,0.1l-0.1,0
						c0.1,0,0,0.1,0.1,0.1c0.1,0,0-0.1,0-0.2c0.1,0.1,0,0.1,0.1,0.1l0,0c0,0,0,0,0,0.1c0.1,0,0,0,0,0c0,0-0.1-0.1-0.1-0.1
						c0,0,0,0,0,0c-0.1-0.1,0.1-0.1,0-0.2c0,0,0,0,0,0c0,0-0.1-0.1-0.1-0.2C52.3-23.7,52.4-23.6,52.4-23.7
						C52.4-23.7,52.2-23.8,52.4-23.7C52.3-23.8,52.3-23.7,52.4-23.7z M51.5-22.6C51.4-22.6,51.4-22.6,51.5-22.6L51.5-22.6
						C51.4-22.6,51.4-22.6,51.5-22.6z M51.4-22.5C51.4-22.5,51.4-22.6,51.4-22.5C51.3-22.6,51.3-22.6,51.4-22.5
						C51.3-22.5,51.4-22.5,51.4-22.5z M51.9-22.1L51.9-22.1C51.9-22.1,51.9-22.1,51.9-22.1C51.9-22.1,51.9-22.1,51.9-22.1
						C51.9-22.1,51.9-22.1,51.9-22.1z"/>
					<polygon class="st2" points="51.9,-22.2 51.9,-22.2 51.9,-22.3 51.9,-22.2 					"/>
					<path class="st2" d="M52-27.6L52-27.6C52-27.6,52-27.6,52-27.6C52-27.6,52-27.6,52-27.6z"/>
					<polygon class="st2" points="49.6,-22.6 49.6,-22.5 49.6,-22.6 					"/>
					<path class="st2" d="M52.3-26.8C52.3-26.8,52.3-26.8,52.3-26.8C52.3-26.8,52.3-26.8,52.3-26.8z"/>
					<path class="st2" d="M52.5-26.6L52.5-26.6C52.5-26.5,52.5-26.5,52.5-26.6z"/>
					<path class="st2" d="M52.6-26.3C52.6-26.3,52.6-26.3,52.6-26.3L52.6-26.3L52.6-26.3z"/>
					<path class="st2" d="M49.4-27.6L49.4-27.6C49.4-27.5,49.4-27.5,49.4-27.6z"/>
					<path class="st2" d="M50.5-27.9C50.5-27.9,50.5-27.8,50.5-27.9C50.5-27.8,50.5-27.8,50.5-27.9z"/>
					<polygon class="st2" points="48.5,-26.9 48.5,-26.9 48.5,-26.9 					"/>
					<path class="st2" d="M50.4-27.8C50.4-27.8,50.4-27.8,50.4-27.8C50.4-27.8,50.4-27.9,50.4-27.8z"/>
					<path class="st2" d="M52.8-25.3L52.8-25.3C52.9-25.3,52.9-25.3,52.8-25.3L52.8-25.3z"/>
					<path class="st2" d="M52.9-25.3L52.9-25.3C52.9-25.3,52.9-25.3,52.9-25.3z"/>
					<path class="st2" d="M52.9-25.3L52.9-25.3C52.9-25.3,52.9-25.3,52.9-25.3z"/>
					<path class="st2" d="M52.8-25.7L52.8-25.7C52.8-25.6,52.8-25.7,52.8-25.7z"/>
					<path class="st2" d="M52.8-25.7C52.8-25.7,52.7-25.7,52.8-25.7L52.8-25.7C52.7-25.6,52.9-25.7,52.8-25.7z"/>
					<path class="st2" d="M53.1-26.3L53.1-26.3c0,0.1,0.1,0,0.1,0.1C53.3-26.4,53.1-26.2,53.1-26.3z"/>
					<path class="st2" d="M53-26.6C53.1-26.5,53.1-26.6,53-26.6C53-26.6,53-26.6,53-26.6z"/>
					<path class="st2" d="M51.5-28L51.5-28C51.5-28.1,51.5-28,51.5-28z"/>
					<polygon class="st2" points="51,-27.7 51,-27.6 51,-27.7 					"/>
					<polygon class="st2" points="50.9,-28.4 50.9,-28.4 50.9,-28.4 					"/>
					<path class="st2" d="M47.6-27.2L47.6-27.2C47.7-27.2,47.6-27.2,47.6-27.2z"/>
					<path class="st2" d="M47-25.7C46.9-25.7,46.9-25.7,47-25.7C46.9-25.7,47-25.7,47-25.7z"/>
					<polygon class="st2" points="49,-21.8 48.9,-21.8 49,-21.8 					"/>
				</g>
			</g>
			<g>
				<circle class="st2" cx="50.2" cy="-50.1" r="3"/>
				<g>
					<path class="st2" d="M52.9-50.1C53-50,53-50,52.9-50.1L52.9-50.1L52.9-50.1z"/>
					<path class="st2" d="M53.1-50.2c-0.1,0-0.2-0.1-0.3,0C53-50.2,52.9-50.2,53.1-50.2c0,0.1-0.1,0.1-0.1,0.1c0,0,0,0,0.1,0.1
						C53.1-50.1,53.1-50.2,53.1-50.2C53.1-50.2,53.1-50.2,53.1-50.2z"/>
					<path class="st2" d="M52-52.6L52-52.6C52-52.6,52-52.6,52-52.6z"/>
					<path class="st2" d="M50.4-53.3C50.4-53.3,50.4-53.3,50.4-53.3C50.4-53.3,50.4-53.3,50.4-53.3z"/>
					<path class="st2" d="M50.1-53.4C50.1-53.4,50.1-53.4,50.1-53.4C50.1-53.4,50.1-53.4,50.1-53.4z"/>
					<path class="st2" d="M52-52.6L52-52.6C52-52.7,52-52.6,52-52.6z"/>
					<path class="st2" d="M52.8-50.5C52.8-50.5,52.8-50.5,52.8-50.5L52.8-50.5L52.8-50.5z"/>
					<path class="st2" d="M52.6-52.2L52.6-52.2C52.7-52.2,52.7-52.2,52.6-52.2L52.6-52.2z"/>
					<path class="st2" d="M53-51.7c0,0-0.1,0-0.1,0C52.9-51.6,52.9-51.7,53-51.7C53-51.7,53-51.7,53-51.7z"/>
					<path class="st2" d="M53.2-50.7L53.2-50.7L53.2-50.7z"/>
					<path class="st2" d="M52.4-52.5C52.4-52.5,52.4-52.5,52.4-52.5C52.4-52.5,52.4-52.5,52.4-52.5z"/>
					<path class="st2" d="M52.6-49.5L52.6-49.5C52.7-49.5,52.6-49.5,52.6-49.5z"/>
					<polygon class="st2" points="53.2,-50.1 53.2,-50 53.3,-50 					"/>
					<path class="st2" d="M49.5-53.5L49.5-53.5C49.5-53.5,49.5-53.5,49.5-53.5z"/>
					<path class="st2" d="M46.8-49.3c0.1-0.1,0.1,0.1,0.2,0C47-49.4,46.9-49.4,46.8-49.3z"/>
					<path class="st2" d="M52.8-50.6L52.8-50.6C52.8-50.6,52.8-50.6,52.8-50.6z"/>
					<path class="st2" d="M47-49.4L47-49.4L47-49.4C47.1-49.4,47-49.4,47-49.4z"/>
					<path class="st2" d="M48.2-52.9C48.3-52.9,48.3-52.9,48.2-52.9C48.3-52.9,48.3-52.9,48.2-52.9z"/>
					<path class="st2" d="M49.2-53.2L49.2-53.2C49.2-53.2,49.2-53.2,49.2-53.2z"/>
					<path class="st2" d="M47.9-52.4C47.9-52.4,47.9-52.5,47.9-52.4C47.9-52.4,47.9-52.4,47.9-52.4C47.9-52.4,47.9-52.4,47.9-52.4z"
						/>
					<polygon class="st2" points="47.6,-52.1 47.6,-52.1 47.6,-52.1 					"/>
					<path class="st2" d="M52.1-48.4C52.2-48.4,52.2-48.4,52.1-48.4C52.2-48.4,52.2-48.4,52.1-48.4z"/>
					<path class="st2" d="M52.9-50.6C52.9-50.6,52.8-50.6,52.9-50.6C52.8-50.6,52.8-50.6,52.9-50.6C52.9-50.5,52.9-50.6,52.9-50.6z"
						/>
					<path class="st2" d="M48.5-51.9L48.5-51.9C48.4-51.8,48.4-51.8,48.5-51.9z"/>
					<path class="st2" d="M49.5-47.6L49.5-47.6C49.5-47.6,49.5-47.6,49.5-47.6z"/>
					<path class="st2" d="M48.3-51.7C48.2-51.7,48.2-51.7,48.3-51.7C48.2-51.7,48.2-51.7,48.3-51.7L48.3-51.7z"/>
					<path class="st2" d="M52.2-48.3L52.2-48.3L52.2-48.3z"/>
					<path class="st2" d="M52.4-48.7c0-0.1,0,0,0.1,0c-0.1-0.1,0.1,0-0.1-0.1c0.1,0,0.1,0,0.2,0c-0.1,0-0.1-0.1-0.2-0.2
						c0.1,0,0.1,0.1,0.3,0.1c-0.1-0.1-0.1-0.1-0.2-0.2c0,0,0.1,0,0.1,0c0,0,0,0,0,0c-0.1-0.1,0.1-0.2-0.1-0.3c0.2,0.1,0.1-0.1,0.2,0
						c0,0-0.1-0.1-0.1-0.1c0.2,0,0.1-0.1,0.1-0.1c-0.1,0,0-0.1-0.1-0.1c0,0,0,0,0.1,0c-0.1,0,0,0,0.1-0.1c0-0.1-0.1,0-0.2,0
						c0,0,0.1,0,0.2,0l-0.2-0.1c0,0,0,0,0.1,0c0,0-0.1,0,0-0.1l0,0.1l0.1,0L52.8-50c0.1-0.1,0.3-0.1,0.5-0.1l0,0
						c0.1,0,0.1,0,0.1-0.1c0,0,0.2,0.1,0.2,0.1c0,0.1-0.2,0-0.2,0.1c0,0,0.1,0.1,0.1,0.1l-0.1,0c0,0,0,0,0,0c-0.1,0,0,0.1-0.1,0.1
						l0.1,0c0.1,0.2-0.2,0.2-0.2,0.3l0.1,0.1l-0.1,0c0,0.1,0.1,0.1,0.1,0.2c-0.3,0.2-0.2,0.5-0.4,0.7c0,0,0,0,0.1,0
						c-0.3,0,0,0.5-0.3,0.5l0,0c-0.1,0.1,0,0-0.1,0c0.1,0.1,0,0.2,0,0.2c0,0,0,0,0-0.1c0,0-0.1-0.1-0.1,0c0.1,0.2-0.1,0.3-0.1,0.4
						c-0.1-0.1-0.2-0.1-0.3-0.2c0,0,0,0.1,0,0.2c-0.1,0-0.1,0-0.1,0.1c0,0,0.1,0,0.1-0.1l0,0c0,0,0,0,0,0c0,0,0,0,0,0
						c0.1,0,0,0.1,0.1,0.1c0,0-0.1,0.1-0.1,0c0,0,0,0-0.1,0c0,0,0,0,0,0l0,0c0,0,0,0,0,0c-0.1,0-0.1,0.2-0.1,0.3
						c0-0.1-0.1-0.1-0.1-0.2c0,0,0.1,0,0.2-0.1c0,0,0,0,0,0c-0.1-0.1-0.1,0.1-0.2,0.1c0,0,0,0,0-0.1c0,0-0.1,0.1,0,0.1
						c0-0.1-0.1-0.1-0.2-0.1c0,0.1,0,0.1-0.1,0.1l0-0.1c-0.1,0,0,0.1-0.1,0.1c0,0,0,0,0-0.1c-0.1,0.1-0.1,0.1-0.1,0.2l0-0.1
						c-0.1,0.1-0.2,0.2-0.2,0.1c0.1,0.2-0.2,0.1-0.2,0.1c0,0,0-0.1,0-0.1c-0.1,0.1-0.3,0-0.4,0l0-0.2c-0.1,0-0.1,0.3-0.2,0.3l0-0.1
						c-0.1,0-0.2,0-0.3-0.1l0-0.1c0,0-0.1,0-0.1,0.1c0-0.3-0.4,0-0.5-0.3l-0.1,0.2c-0.1,0-0.2,0-0.1-0.2l0,0c0.1-0.1-0.1,0-0.1-0.1
						c0,0-0.1,0.1-0.1,0.1c-0.1-0.2-0.4-0.2-0.4-0.4c-0.2,0-0.4,0-0.5-0.2l0,0c0-0.1-0.1-0.2,0-0.3c-0.1-0.1-0.3,0-0.4-0.2l0.1,0
						c0-0.1-0.1-0.1-0.1-0.1c0,0,0,0,0,0c0-0.1-0.1,0-0.1-0.1l0.1,0c0-0.2-0.3-0.2-0.3-0.4c0,0,0.1,0,0.1,0c-0.2,0-0.2-0.2-0.3-0.2
						l0.1,0c-0.2-0.1,0.1-0.2,0-0.3L46.8-49c0-0.1,0-0.1-0.1-0.1c0-0.1,0.1,0,0.1-0.1c0,0,0,0.1,0.1,0l0.1-0.2c0,0,0,0,0-0.1
						c-0.2,0.1,0-0.1-0.2,0c0-0.2,0.1-0.4,0-0.5c0.2-0.1,0-0.3,0.3-0.3c0-0.1,0-0.2-0.1-0.2c0,0,0,0,0,0.1c-0.1,0-0.1-0.1-0.1-0.2
						c0.1,0.1,0.1,0.2,0.2,0.2c0-0.1-0.1-0.2-0.1-0.2l0.1,0c-0.1-0.1,0.1,0,0-0.1l0,0c0-0.1-0.1-0.1-0.1-0.3l0.1,0
						c0,0-0.1-0.1,0.1-0.1l0,0.1c0.1,0,0.2,0,0.2,0c0-0.1-0.1-0.1-0.1-0.1c0.1,0,0,0,0.1,0.1c0-0.1,0-0.2-0.1-0.3c0,0,0,0,0,0
						c0.1-0.1-0.1-0.2,0-0.2l0,0c0.1,0,0-0.2,0.2-0.1c0.1,0,0,0.1,0.1,0.1c0.1,0-0.1-0.2,0-0.2c0,0,0,0,0,0c0-0.1,0.1-0.1,0.1-0.2
						c0.2,0,0.2-0.2,0.4-0.2c-0.1,0,0-0.1-0.1-0.1c0,0,0,0,0,0c0,0,0-0.1,0-0.1c0.1,0,0-0.1,0.1-0.1c0,0,0,0,0-0.1
						c0,0.1,0.1,0.1,0.1,0.2c0.1-0.1,0-0.2,0.1-0.3l0.1,0c-0.1-0.1,0-0.1,0-0.2c0,0,0.1,0,0.1,0.1c0-0.1,0.1,0,0.1-0.1l-0.1,0
						c0.1,0,0.1-0.2,0.3-0.2l0.1,0.2c0.1,0,0.1-0.2,0.2-0.1c0-0.1,0,0,0-0.1c0,0-0.1,0.1-0.1,0.1l0-0.2L48.7-53c0-0.1,0-0.1,0-0.1
						c0.1-0.1,0.1,0,0.2-0.1c0,0,0,0.1,0.1,0.1c0-0.1,0.2,0.1,0.2,0c0,0,0,0,0,0.1c0,0,0.1,0,0.1-0.1l0,0c0,0,0-0.1,0.1-0.1
						c0-0.1,0-0.2,0-0.2c0,0,0.1,0,0.1,0.1c0.1,0,0-0.2,0.1-0.2c0,0,0,0,0,0c0,0,0.1,0,0.1,0c-0.1,0,0.1,0.2-0.1,0.1
						c0,0.1,0.1,0,0.1,0c0-0.1,0-0.2,0-0.2c0,0,0,0,0.1,0l0-0.1c0,0,0,0,0.1,0l0,0c0.1,0,0.1,0.1,0.2,0c0,0-0.1,0.1,0,0.1
						c0.1-0.1,0,0,0.1,0.1c0.1,0,0-0.2,0.1-0.1c0,0,0,0,0-0.1c0.1,0,0.1,0,0.2,0c0,0-0.1-0.1,0-0.1c0,0.1,0.1,0.1,0.1,0.1l0,0
						c0,0,0,0.1,0,0.1c0,0,0,0,0,0c0,0,0,0.2,0,0.2c0.1,0,0.1-0.1,0.1-0.2c0.1,0.1,0.1-0.2,0.2-0.1c0,0,0.1,0.2,0.1,0.2
						c0.1-0.1-0.1-0.1,0-0.2c0.1,0.3,0.3-0.1,0.4,0.1l-0.1,0.1c0,0,0.1,0,0.1,0l0-0.1c0,0,0.1,0,0.1,0.1c0.1-0.1,0.1,0,0.2,0
						c-0.1,0,0,0-0.1,0c0.1,0.1,0.1,0.1,0.1,0c0,0,0,0.1,0,0.1c0.1,0,0.2,0,0.2,0l0,0c0.1,0,0.2,0.2,0.3,0.2l0,0l0,0l0,0l0,0
						c0-0.1,0.1,0,0.2,0c0,0,0,0.1,0,0.1c0.1-0.1,0.1,0,0.1,0c0,0.1-0.1,0.1,0,0.1c0,0,0.1,0,0.1-0.1c0,0.1,0,0.1,0,0.1c0,0,0,0,0,0
						c0,0,0,0-0.1,0.1c0,0,0.1-0.1,0.1,0l-0.1,0c0,0,0,0,0,0c0,0-0.1,0.1-0.1,0.1c0.1,0,0.2-0.1,0.2-0.2c0,0.1,0.1,0.1,0.2,0.1
						l-0.1,0.1c0,0,0.1,0,0.1,0l0,0c0,0-0.1,0-0.1,0.1c0.1,0,0.1,0.1,0.2,0l0,0c0,0.1,0.1,0.2,0,0.3c0.1,0,0.1,0.2,0.2,0.1
						c0.1,0-0.1,0.2,0.1,0.1c-0.1,0.1,0,0-0.1,0c-0.1,0.1,0.2,0,0,0.1c0.1,0,0,0,0.1,0c-0.1,0.1,0,0.1,0,0.2c0.1,0,0,0,0.1,0
						c0,0,0,0,0,0.1l0.1,0L52.9-51c0.2,0,0.2-0.1,0.3,0l0,0c-0.1,0.1,0.1,0.1,0,0.2c0,0-0.1,0-0.1,0l0.1,0c0,0,0,0,0,0
						c-0.1,0.1,0.1,0,0,0.1c0,0-0.1,0-0.1,0l0.1,0l-0.1,0c0,0.1,0.2,0.1,0.1,0.2l0,0c0,0-0.1,0-0.1,0.1c0,0,0.1,0,0.1,0l0,0
						c-0.1,0-0.1-0.1-0.2-0.1c0,0,0.1,0,0.1,0c0,0-0.1-0.1-0.1-0.1c0,0,0.1,0,0.1,0c0-0.1-0.1,0-0.1-0.1c0,0,0.1,0,0.1,0
						c0,0-0.1-0.1,0-0.1c0,0,0.1,0,0.1,0c-0.1-0.1-0.2-0.1-0.3-0.1c-0.2,0,0-0.2-0.1-0.3c0,0,0,0.1-0.1,0c0.1,0,0,0,0.1-0.1
						c-0.1,0,0-0.1-0.1-0.1c0,0,0,0,0.1-0.1c0.1,0,0-0.1,0.2-0.1c-0.2,0,0-0.2-0.3-0.1l0,0l0-0.1l0,0c0,0,0,0,0-0.1c0,0,0.1,0,0.1,0
						c0.1-0.1-0.1,0-0.2-0.1c0.1,0,0.1,0,0.1,0c0,0-0.1,0-0.1,0l0,0c0-0.1-0.2,0.1-0.1,0c0,0,0,0-0.1,0c0,0,0-0.1,0.1-0.1
						c0,0-0.1,0-0.1,0c0,0.1,0,0-0.1,0.1l-0.1-0.1c0,0,0,0,0,0c0.1-0.3-0.3-0.1-0.3-0.4c0,0.1,0,0-0.1,0.1c0,0-0.1-0.1-0.1-0.1l0,0
						c-0.1,0-0.3,0-0.3-0.1c0,0,0-0.1,0.1-0.1c-0.1,0.1,0-0.2-0.1-0.1l0,0c-0.1-0.1-0.3,0-0.4,0c0-0.1,0.1,0,0.1-0.1
						c-0.1-0.1-0.2,0-0.3-0.1c0,0,0,0,0,0c-0.1-0.1,0,0.1-0.1,0.1c0-0.1,0-0.1,0-0.1l0,0.1c0,0,0-0.1,0-0.1c-0.1,0.1-0.1,0-0.2,0.1
						c0,0,0-0.1,0-0.2c0,0-0.1,0-0.1,0l0,0c0-0.1-0.1-0.1-0.1-0.1c-0.1,0,0,0.1-0.1,0.1l0.1,0.1l-0.1,0l0-0.1c0,0-0.1,0-0.2,0l0,0.1
						c0,0,0,0-0.1,0c0-0.1-0.1,0,0-0.2c-0.1-0.1-0.2,0.1-0.3,0.1c0,0,0,0,0,0c-0.1,0-0.1,0.1-0.1,0.1c0,0,0-0.1,0-0.1
						c-0.1,0,0,0.1-0.1,0.1c0-0.1,0-0.1,0-0.1c0,0,0,0.1,0,0.1c0-0.3-0.1-0.1-0.1-0.3c0,0.1-0.1,0.2,0,0.3l0,0c0,0.1,0,0,0,0.1
						c0,0,0,0,0,0c-0.1,0.1-0.2,0.1-0.3,0.2c0,0,0-0.1,0-0.1c-0.1,0-0.1,0.2-0.2,0.3c-0.1-0.1,0.1-0.1,0-0.2
						c-0.1,0.1-0.2,0.2-0.3,0.4c-0.2-0.2,0,0.2-0.2,0.1c0.1,0.1,0,0.1,0,0.1c0-0.1-0.1,0-0.1-0.1c0,0.1,0,0.2-0.2,0.1
						c0.1,0.1-0.1,0.1,0,0.2c-0.1,0,0,0.1-0.1,0.1c0.1,0,0,0.1,0,0.1c0,0,0,0,0,0c-0.1,0,0,0.1,0,0.1c0,0-0.1-0.1-0.1,0
						c0.1,0,0.1,0.2,0,0.2c0,0,0,0,0-0.1c0,0.2-0.2,0.3-0.1,0.5l-0.1-0.1c-0.2,0.1,0.2,0.1,0.1,0.2c-0.1,0.2-0.3,0.5-0.2,0.7
						c0,0,0,0,0.1,0c0,0-0.1,0,0,0.1l0.1,0c-0.2,0.1,0.1,0.3-0.1,0.4c0.1,0.1,0,0.2,0.2,0.3c0,0.1-0.1,0-0.1,0l0.1,0.1l0,0
						c0.2,0-0.1,0.4,0.1,0.4l0,0c0,0-0.1,0.1,0,0.1c0,0,0,0,0.1-0.1c0.1,0.1,0.2,0.1,0.2,0.2c-0.1,0,0,0.1-0.1,0.1
						c0.1,0,0.1-0.1,0.1-0.1c0.1,0.1,0.1,0.2,0.1,0.2c0.1,0,0.1,0,0.2-0.1c0.1,0.1,0.1,0.1,0.2,0.1l0,0c0.1-0.1,0,0.1,0.1,0.1
						c0,0,0,0-0.1,0.1l0.1,0c0,0-0.1,0.1-0.1,0.1c0.1,0,0-0.1,0.1-0.1l-0.1,0.1c0,0,0.1-0.1,0.1-0.1c0.1,0.1,0.2,0.1,0.3,0.1l0,0.1
						c0.1,0,0.1,0,0.1,0.1c0,0,0-0.1,0-0.1c0.1-0.1,0,0.1,0.1,0c0,0-0.1,0-0.1,0.1l0.2,0c0,0.1,0,0.2,0.1,0.2c0,0,0-0.1,0-0.1l0,0
						l0,0.1l0.1-0.1l0,0.1c0,0,0.1-0.1,0.1-0.1c0.1,0.1,0.1,0.1,0.2,0.2c0-0.2,0.1,0,0.2-0.1c0.1,0.2,0.3,0.1,0.5,0.1l0,0
						c0.1,0.1,0.1-0.2,0.1-0.1l0,0c0.1,0.1,0.3,0,0.3-0.1c0,0,0,0.1,0,0.1c0,0-0.1-0.1,0-0.1c0,0,0,0.1,0,0.1l0-0.1
						c0.1,0,0.3,0,0.4-0.1c0,0,0,0.1,0.1,0.1c0.1-0.1,0.1-0.2,0.2-0.3l0.1,0.1c0,0-0.1-0.2,0-0.1c0,0,0,0,0,0.1c0.1,0,0-0.1,0.1-0.2
						l0.1,0.1c0.1,0,0-0.1,0-0.2c0-0.2,0.2,0.2,0.2,0c0-0.1-0.1-0.1-0.1-0.1c0.1,0,0-0.1,0.1-0.2c0.2,0.1,0,0,0.1,0.1l-0.1,0
						c0.1,0,0,0.1,0.1,0.1c0.1,0,0-0.1,0-0.2c0.1,0.1,0,0.1,0.1,0.1l0,0c0,0,0,0,0,0.1c0.1,0,0,0,0,0c0,0-0.1-0.1-0.1-0.1
						c0,0,0,0,0,0c-0.1-0.1,0.1-0.1,0-0.2c0,0,0,0,0,0c0,0-0.1-0.1-0.1-0.2C52.3-48.7,52.4-48.6,52.4-48.7
						C52.4-48.7,52.2-48.8,52.4-48.7C52.3-48.8,52.3-48.7,52.4-48.7z M51.5-47.6C51.4-47.6,51.4-47.6,51.5-47.6L51.5-47.6
						C51.4-47.6,51.4-47.6,51.5-47.6z M51.4-47.5C51.4-47.5,51.4-47.6,51.4-47.5C51.3-47.6,51.3-47.6,51.4-47.5
						C51.3-47.5,51.4-47.5,51.4-47.5z M51.9-47.1L51.9-47.1C51.9-47.1,51.9-47.1,51.9-47.1C51.9-47.1,51.9-47.1,51.9-47.1
						C51.9-47.1,51.9-47.1,51.9-47.1z"/>
					<polygon class="st2" points="51.9,-47.2 51.9,-47.2 51.9,-47.3 51.9,-47.2 					"/>
					<path class="st2" d="M52-52.6L52-52.6C52-52.6,52-52.6,52-52.6C52-52.6,52-52.6,52-52.6z"/>
					<polygon class="st2" points="49.6,-47.6 49.6,-47.5 49.6,-47.6 					"/>
					<path class="st2" d="M52.3-51.8C52.3-51.8,52.3-51.8,52.3-51.8C52.3-51.8,52.3-51.8,52.3-51.8z"/>
					<path class="st2" d="M52.5-51.6L52.5-51.6C52.5-51.5,52.5-51.5,52.5-51.6z"/>
					<path class="st2" d="M52.6-51.3C52.6-51.3,52.6-51.3,52.6-51.3L52.6-51.3L52.6-51.3z"/>
					<path class="st2" d="M49.4-52.6L49.4-52.6C49.4-52.5,49.4-52.5,49.4-52.6z"/>
					<path class="st2" d="M50.5-52.9C50.5-52.9,50.5-52.8,50.5-52.9C50.5-52.8,50.5-52.8,50.5-52.9z"/>
					<polygon class="st2" points="48.5,-51.9 48.5,-51.9 48.5,-51.9 					"/>
					<path class="st2" d="M50.4-52.8C50.4-52.8,50.4-52.8,50.4-52.8C50.4-52.8,50.4-52.9,50.4-52.8z"/>
					<path class="st2" d="M52.8-50.3L52.8-50.3C52.9-50.3,52.9-50.3,52.8-50.3L52.8-50.3z"/>
					<path class="st2" d="M52.9-50.3L52.9-50.3C52.9-50.3,52.9-50.3,52.9-50.3z"/>
					<path class="st2" d="M52.9-50.3L52.9-50.3C52.9-50.3,52.9-50.3,52.9-50.3z"/>
					<path class="st2" d="M52.8-50.7L52.8-50.7C52.8-50.6,52.8-50.7,52.8-50.7z"/>
					<path class="st2" d="M52.8-50.7C52.8-50.7,52.7-50.7,52.8-50.7L52.8-50.7C52.7-50.6,52.9-50.7,52.8-50.7z"/>
					<path class="st2" d="M53.1-51.3L53.1-51.3c0,0.1,0.1,0,0.1,0.1C53.3-51.4,53.1-51.2,53.1-51.3z"/>
					<path class="st2" d="M53-51.6C53.1-51.5,53.1-51.6,53-51.6C53-51.6,53-51.6,53-51.6z"/>
					<path class="st2" d="M51.5-53L51.5-53C51.5-53.1,51.5-53,51.5-53z"/>
					<polygon class="st2" points="51,-52.7 51,-52.6 51,-52.7 					"/>
					<polygon class="st2" points="50.9,-53.4 50.9,-53.4 50.9,-53.4 					"/>
					<path class="st2" d="M47.6-52.2L47.6-52.2C47.7-52.2,47.6-52.2,47.6-52.2z"/>
					<path class="st2" d="M47-50.7C46.9-50.7,46.9-50.7,47-50.7C46.9-50.7,47-50.7,47-50.7z"/>
					<polygon class="st2" points="49,-46.8 48.9,-46.8 49,-46.8 					"/>
				</g>
			</g>
			<g>
				<circle class="st2" cx="25.2" cy="-50.1" r="3"/>
				<g>
					<path class="st2" d="M27.9-50.1C28-50,28-50,27.9-50.1L27.9-50.1L27.9-50.1z"/>
					<path class="st2" d="M28.1-50.2c-0.1,0-0.2-0.1-0.3,0C28-50.2,27.9-50.2,28.1-50.2c0,0.1-0.1,0.1-0.1,0.1c0,0,0,0,0.1,0.1
						C28.1-50.1,28.1-50.2,28.1-50.2C28.1-50.2,28.1-50.2,28.1-50.2z"/>
					<path class="st2" d="M27-52.6L27-52.6C27-52.6,27-52.6,27-52.6z"/>
					<path class="st2" d="M25.4-53.3C25.4-53.3,25.4-53.3,25.4-53.3C25.4-53.3,25.4-53.3,25.4-53.3z"/>
					<path class="st2" d="M25.1-53.4C25.1-53.4,25.1-53.4,25.1-53.4C25.1-53.4,25.1-53.4,25.1-53.4z"/>
					<path class="st2" d="M27-52.6L27-52.6C27-52.7,27-52.6,27-52.6z"/>
					<path class="st2" d="M27.8-50.5C27.8-50.5,27.8-50.5,27.8-50.5L27.8-50.5L27.8-50.5z"/>
					<path class="st2" d="M27.6-52.2L27.6-52.2C27.7-52.2,27.7-52.2,27.6-52.2L27.6-52.2z"/>
					<path class="st2" d="M28-51.7c0,0-0.1,0-0.1,0C27.9-51.6,27.9-51.7,28-51.7C28-51.7,28-51.7,28-51.7z"/>
					<path class="st2" d="M28.2-50.7L28.2-50.7L28.2-50.7z"/>
					<path class="st2" d="M27.4-52.5C27.4-52.5,27.4-52.5,27.4-52.5C27.4-52.5,27.4-52.5,27.4-52.5z"/>
					<path class="st2" d="M27.6-49.5L27.6-49.5C27.7-49.5,27.6-49.5,27.6-49.5z"/>
					<polygon class="st2" points="28.2,-50.1 28.2,-50 28.3,-50 					"/>
					<path class="st2" d="M24.5-53.5L24.5-53.5C24.5-53.5,24.5-53.5,24.5-53.5z"/>
					<path class="st2" d="M21.8-49.3c0.1-0.1,0.1,0.1,0.2,0C22-49.4,21.9-49.4,21.8-49.3z"/>
					<path class="st2" d="M27.8-50.6L27.8-50.6C27.8-50.6,27.8-50.6,27.8-50.6z"/>
					<path class="st2" d="M22-49.4L22-49.4L22-49.4C22.1-49.4,22-49.4,22-49.4z"/>
					<path class="st2" d="M23.2-52.9C23.3-52.9,23.3-52.9,23.2-52.9C23.3-52.9,23.3-52.9,23.2-52.9z"/>
					<path class="st2" d="M24.2-53.2L24.2-53.2C24.2-53.2,24.2-53.2,24.2-53.2z"/>
					<path class="st2" d="M22.9-52.4C22.9-52.4,22.9-52.5,22.9-52.4C22.9-52.4,22.9-52.4,22.9-52.4C22.9-52.4,22.9-52.4,22.9-52.4z"
						/>
					<polygon class="st2" points="22.6,-52.1 22.6,-52.1 22.6,-52.1 					"/>
					<path class="st2" d="M27.1-48.4C27.2-48.4,27.2-48.4,27.1-48.4C27.2-48.4,27.2-48.4,27.1-48.4z"/>
					<path class="st2" d="M27.9-50.6C27.9-50.6,27.8-50.6,27.9-50.6C27.8-50.6,27.8-50.6,27.9-50.6C27.9-50.5,27.9-50.6,27.9-50.6z"
						/>
					<path class="st2" d="M23.5-51.9L23.5-51.9C23.4-51.8,23.4-51.8,23.5-51.9z"/>
					<path class="st2" d="M24.5-47.6L24.5-47.6C24.5-47.6,24.5-47.6,24.5-47.6z"/>
					<path class="st2" d="M23.3-51.7C23.2-51.7,23.2-51.7,23.3-51.7C23.2-51.7,23.2-51.7,23.3-51.7L23.3-51.7z"/>
					<path class="st2" d="M27.2-48.3L27.2-48.3L27.2-48.3z"/>
					<path class="st2" d="M27.4-48.7c0-0.1,0,0,0.1,0c-0.1-0.1,0.1,0-0.1-0.1c0.1,0,0.1,0,0.2,0c-0.1,0-0.1-0.1-0.2-0.2
						c0.1,0,0.1,0.1,0.3,0.1c-0.1-0.1-0.1-0.1-0.2-0.2c0,0,0.1,0,0.1,0c0,0,0,0,0,0c-0.1-0.1,0.1-0.2-0.1-0.3c0.2,0.1,0.1-0.1,0.2,0
						c0,0-0.1-0.1-0.1-0.1c0.2,0,0.1-0.1,0.1-0.1c-0.1,0,0-0.1-0.1-0.1c0,0,0,0,0.1,0c-0.1,0,0,0,0.1-0.1c0-0.1-0.1,0-0.2,0
						c0,0,0.1,0,0.2,0l-0.2-0.1c0,0,0,0,0.1,0c0,0-0.1,0,0-0.1l0,0.1l0.1,0L27.8-50c0.1-0.1,0.3-0.1,0.5-0.1l0,0
						c0.1,0,0.1,0,0.1-0.1c0,0,0.2,0.1,0.2,0.1c0,0.1-0.2,0-0.2,0.1c0,0,0.1,0.1,0.1,0.1l-0.1,0c0,0,0,0,0,0c-0.1,0,0,0.1-0.1,0.1
						l0.1,0c0.1,0.2-0.2,0.2-0.2,0.3l0.1,0.1l-0.1,0c0,0.1,0.1,0.1,0.1,0.2c-0.3,0.2-0.2,0.5-0.4,0.7c0,0,0,0,0.1,0
						c-0.3,0,0,0.5-0.3,0.5l0,0c-0.1,0.1,0,0-0.1,0c0.1,0.1,0,0.2,0,0.2c0,0,0,0,0-0.1c0,0-0.1-0.1-0.1,0c0.1,0.2-0.1,0.3-0.1,0.4
						c-0.1-0.1-0.2-0.1-0.3-0.2c0,0,0,0.1,0,0.2c-0.1,0-0.1,0-0.1,0.1c0,0,0.1,0,0.1-0.1l0,0c0,0,0,0,0,0c0,0,0,0,0,0
						c0.1,0,0,0.1,0.1,0.1c0,0-0.1,0.1-0.1,0c0,0,0,0-0.1,0c0,0,0,0,0,0l0,0c0,0,0,0,0,0c-0.1,0-0.1,0.2-0.1,0.3
						c0-0.1-0.1-0.1-0.1-0.2c0,0,0.1,0,0.2-0.1c0,0,0,0,0,0c-0.1-0.1-0.1,0.1-0.2,0.1c0,0,0,0,0-0.1c0,0-0.1,0.1,0,0.1
						c0-0.1-0.1-0.1-0.2-0.1c0,0.1,0,0.1-0.1,0.1l0-0.1c-0.1,0,0,0.1-0.1,0.1c0,0,0,0,0-0.1c-0.1,0.1-0.1,0.1-0.1,0.2l0-0.1
						c-0.1,0.1-0.2,0.2-0.2,0.1c0.1,0.2-0.2,0.1-0.2,0.1c0,0,0-0.1,0-0.1c-0.1,0.1-0.3,0-0.4,0l0-0.2c-0.1,0-0.1,0.3-0.2,0.3l0-0.1
						c-0.1,0-0.2,0-0.3-0.1l0-0.1c0,0-0.1,0-0.1,0.1c0-0.3-0.4,0-0.5-0.3l-0.1,0.2c-0.1,0-0.2,0-0.1-0.2l0,0c0.1-0.1-0.1,0-0.1-0.1
						c0,0-0.1,0.1-0.1,0.1c-0.1-0.2-0.4-0.2-0.4-0.4c-0.2,0-0.4,0-0.5-0.2l0,0c0-0.1-0.1-0.2,0-0.3c-0.1-0.1-0.3,0-0.4-0.2l0.1,0
						c0-0.1-0.1-0.1-0.1-0.1c0,0,0,0,0,0c0-0.1-0.1,0-0.1-0.1l0.1,0c0-0.2-0.3-0.2-0.3-0.4c0,0,0.1,0,0.1,0c-0.2,0-0.2-0.2-0.3-0.2
						l0.1,0c-0.2-0.1,0.1-0.2,0-0.3L21.8-49c0-0.1,0-0.1-0.1-0.1c0-0.1,0.1,0,0.1-0.1c0,0,0,0.1,0.1,0l0.1-0.2c0,0,0,0,0-0.1
						c-0.2,0.1,0-0.1-0.2,0c0-0.2,0.1-0.4,0-0.5c0.2-0.1,0-0.3,0.3-0.3c0-0.1,0-0.2-0.1-0.2c0,0,0,0,0,0.1c-0.1,0-0.1-0.1-0.1-0.2
						c0.1,0.1,0.1,0.2,0.2,0.2c0-0.1-0.1-0.2-0.1-0.2l0.1,0c-0.1-0.1,0.1,0,0-0.1l0,0c0-0.1-0.1-0.1-0.1-0.3l0.1,0
						c0,0-0.1-0.1,0.1-0.1l0,0.1c0.1,0,0.2,0,0.2,0c0-0.1-0.1-0.1-0.1-0.1c0.1,0,0,0,0.1,0.1c0-0.1,0-0.2-0.1-0.3c0,0,0,0,0,0
						c0.1-0.1-0.1-0.2,0-0.2l0,0c0.1,0,0-0.2,0.2-0.1c0.1,0,0,0.1,0.1,0.1c0.1,0-0.1-0.2,0-0.2c0,0,0,0,0,0c0-0.1,0.1-0.1,0.1-0.2
						c0.2,0,0.2-0.2,0.4-0.2c-0.1,0,0-0.1-0.1-0.1c0,0,0,0,0,0c0,0,0-0.1,0-0.1c0.1,0,0-0.1,0.1-0.1c0,0,0,0,0-0.1
						c0,0.1,0.1,0.1,0.1,0.2c0.1-0.1,0-0.2,0.1-0.3l0.1,0c-0.1-0.1,0-0.1,0-0.2c0,0,0.1,0,0.1,0.1c0-0.1,0.1,0,0.1-0.1l-0.1,0
						c0.1,0,0.1-0.2,0.3-0.2l0.1,0.2c0.1,0,0.1-0.2,0.2-0.1c0-0.1,0,0,0-0.1c0,0-0.1,0.1-0.1,0.1l0-0.2L23.7-53c0-0.1,0-0.1,0-0.1
						c0.1-0.1,0.1,0,0.2-0.1c0,0,0,0.1,0.1,0.1c0-0.1,0.2,0.1,0.2,0c0,0,0,0,0,0.1c0,0,0.1,0,0.1-0.1l0,0c0,0,0-0.1,0.1-0.1
						c0-0.1,0-0.2,0-0.2c0,0,0.1,0,0.1,0.1c0.1,0,0-0.2,0.1-0.2c0,0,0,0,0,0c0,0,0.1,0,0.1,0c-0.1,0,0.1,0.2-0.1,0.1
						c0,0.1,0.1,0,0.1,0c0-0.1,0-0.2,0-0.2c0,0,0,0,0.1,0l0-0.1c0,0,0,0,0.1,0l0,0c0.1,0,0.1,0.1,0.2,0c0,0-0.1,0.1,0,0.1
						c0.1-0.1,0,0,0.1,0.1c0.1,0,0-0.2,0.1-0.1c0,0,0,0,0-0.1c0.1,0,0.1,0,0.2,0c0,0-0.1-0.1,0-0.1c0,0.1,0.1,0.1,0.1,0.1l0,0
						c0,0,0,0.1,0,0.1c0,0,0,0,0,0c0,0,0,0.2,0,0.2c0.1,0,0.1-0.1,0.1-0.2c0.1,0.1,0.1-0.2,0.2-0.1c0,0,0.1,0.2,0.1,0.2
						c0.1-0.1-0.1-0.1,0-0.2c0.1,0.3,0.3-0.1,0.4,0.1l-0.1,0.1c0,0,0.1,0,0.1,0l0-0.1c0,0,0.1,0,0.1,0.1c0.1-0.1,0.1,0,0.2,0
						c-0.1,0,0,0-0.1,0c0.1,0.1,0.1,0.1,0.1,0c0,0,0,0.1,0,0.1c0.1,0,0.2,0,0.2,0l0,0c0.1,0,0.2,0.2,0.3,0.2l0,0l0,0l0,0l0,0
						c0-0.1,0.1,0,0.2,0c0,0,0,0.1,0,0.1c0.1-0.1,0.1,0,0.1,0c0,0.1-0.1,0.1,0,0.1c0,0,0.1,0,0.1-0.1c0,0.1,0,0.1,0,0.1c0,0,0,0,0,0
						c0,0,0,0-0.1,0.1c0,0,0.1-0.1,0.1,0l-0.1,0c0,0,0,0,0,0c0,0-0.1,0.1-0.1,0.1c0.1,0,0.2-0.1,0.2-0.2c0,0.1,0.1,0.1,0.2,0.1
						l-0.1,0.1c0,0,0.1,0,0.1,0l0,0c0,0-0.1,0-0.1,0.1c0.1,0,0.1,0.1,0.2,0l0,0c0,0.1,0.1,0.2,0,0.3c0.1,0,0.1,0.2,0.2,0.1
						c0.1,0-0.1,0.2,0.1,0.1c-0.1,0.1,0,0-0.1,0c-0.1,0.1,0.2,0,0,0.1c0.1,0,0,0,0.1,0c-0.1,0.1,0,0.1,0,0.2c0.1,0,0,0,0.1,0
						c0,0,0,0,0,0.1l0.1,0L27.9-51c0.2,0,0.2-0.1,0.3,0l0,0c-0.1,0.1,0.1,0.1,0,0.2c0,0-0.1,0-0.1,0l0.1,0c0,0,0,0,0,0
						c-0.1,0.1,0.1,0,0,0.1c0,0-0.1,0-0.1,0l0.1,0l-0.1,0c0,0.1,0.2,0.1,0.1,0.2l0,0c0,0-0.1,0-0.1,0.1c0,0,0.1,0,0.1,0l0,0
						c-0.1,0-0.1-0.1-0.2-0.1c0,0,0.1,0,0.1,0c0,0-0.1-0.1-0.1-0.1c0,0,0.1,0,0.1,0c0-0.1-0.1,0-0.1-0.1c0,0,0.1,0,0.1,0
						c0,0-0.1-0.1,0-0.1c0,0,0.1,0,0.1,0c-0.1-0.1-0.2-0.1-0.3-0.1c-0.2,0,0-0.2-0.1-0.3c0,0,0,0.1-0.1,0c0.1,0,0,0,0.1-0.1
						c-0.1,0,0-0.1-0.1-0.1c0,0,0,0,0.1-0.1c0.1,0,0-0.1,0.2-0.1c-0.2,0,0-0.2-0.3-0.1l0,0l0-0.1l0,0c0,0,0,0,0-0.1c0,0,0.1,0,0.1,0
						c0.1-0.1-0.1,0-0.2-0.1c0.1,0,0.1,0,0.1,0c0,0-0.1,0-0.1,0l0,0c0-0.1-0.2,0.1-0.1,0c0,0,0,0-0.1,0c0,0,0-0.1,0.1-0.1
						c0,0-0.1,0-0.1,0c0,0.1,0,0-0.1,0.1l-0.1-0.1c0,0,0,0,0,0c0.1-0.3-0.3-0.1-0.3-0.4c0,0.1,0,0-0.1,0.1c0,0-0.1-0.1-0.1-0.1l0,0
						c-0.1,0-0.3,0-0.3-0.1c0,0,0-0.1,0.1-0.1c-0.1,0.1,0-0.2-0.1-0.1l0,0c-0.1-0.1-0.3,0-0.4,0c0-0.1,0.1,0,0.1-0.1
						c-0.1-0.1-0.2,0-0.3-0.1c0,0,0,0,0,0c-0.1-0.1,0,0.1-0.1,0.1c0-0.1,0-0.1,0-0.1l0,0.1c0,0,0-0.1,0-0.1c-0.1,0.1-0.1,0-0.2,0.1
						c0,0,0-0.1,0-0.2c0,0-0.1,0-0.1,0l0,0c0-0.1-0.1-0.1-0.1-0.1c-0.1,0,0,0.1-0.1,0.1l0.1,0.1l-0.1,0l0-0.1c0,0-0.1,0-0.2,0l0,0.1
						c0,0,0,0-0.1,0c0-0.1-0.1,0,0-0.2c-0.1-0.1-0.2,0.1-0.3,0.1c0,0,0,0,0,0c-0.1,0-0.1,0.1-0.1,0.1c0,0,0-0.1,0-0.1
						c-0.1,0,0,0.1-0.1,0.1c0-0.1,0-0.1,0-0.1c0,0,0,0.1,0,0.1c0-0.3-0.1-0.1-0.1-0.3c0,0.1-0.1,0.2,0,0.3l0,0c0,0.1,0,0,0,0.1
						c0,0,0,0,0,0c-0.1,0.1-0.2,0.1-0.3,0.2c0,0,0-0.1,0-0.1c-0.1,0-0.1,0.2-0.2,0.3c-0.1-0.1,0.1-0.1,0-0.2
						c-0.1,0.1-0.2,0.2-0.3,0.4c-0.2-0.2,0,0.2-0.2,0.1c0.1,0.1,0,0.1,0,0.1c0-0.1-0.1,0-0.1-0.1c0,0.1,0,0.2-0.2,0.1
						c0.1,0.1-0.1,0.1,0,0.2c-0.1,0,0,0.1-0.1,0.1c0.1,0,0,0.1,0,0.1c0,0,0,0,0,0c-0.1,0,0,0.1,0,0.1c0,0-0.1-0.1-0.1,0
						c0.1,0,0.1,0.2,0,0.2c0,0,0,0,0-0.1c0,0.2-0.2,0.3-0.1,0.5l-0.1-0.1c-0.2,0.1,0.2,0.1,0.1,0.2c-0.1,0.2-0.3,0.5-0.2,0.7
						c0,0,0,0,0.1,0c0,0-0.1,0,0,0.1l0.1,0c-0.2,0.1,0.1,0.3-0.1,0.4c0.1,0.1,0,0.2,0.2,0.3c0,0.1-0.1,0-0.1,0l0.1,0.1l0,0
						c0.2,0-0.1,0.4,0.1,0.4l0,0c0,0-0.1,0.1,0,0.1c0,0,0,0,0.1-0.1c0.1,0.1,0.2,0.1,0.2,0.2c-0.1,0,0,0.1-0.1,0.1
						c0.1,0,0.1-0.1,0.1-0.1c0.1,0.1,0.1,0.2,0.1,0.2c0.1,0,0.1,0,0.2-0.1c0.1,0.1,0.1,0.1,0.2,0.1l0,0c0.1-0.1,0,0.1,0.1,0.1
						c0,0,0,0-0.1,0.1l0.1,0c0,0-0.1,0.1-0.1,0.1c0.1,0,0-0.1,0.1-0.1l-0.1,0.1c0,0,0.1-0.1,0.1-0.1c0.1,0.1,0.2,0.1,0.3,0.1l0,0.1
						c0.1,0,0.1,0,0.1,0.1c0,0,0-0.1,0-0.1c0.1-0.1,0,0.1,0.1,0c0,0-0.1,0-0.1,0.1l0.2,0c0,0.1,0,0.2,0.1,0.2c0,0,0-0.1,0-0.1l0,0
						l0,0.1l0.1-0.1l0,0.1c0,0,0.1-0.1,0.1-0.1c0.1,0.1,0.1,0.1,0.2,0.2c0-0.2,0.1,0,0.2-0.1c0.1,0.2,0.3,0.1,0.5,0.1l0,0
						c0.1,0.1,0.1-0.2,0.1-0.1l0,0c0.1,0.1,0.3,0,0.3-0.1c0,0,0,0.1,0,0.1c0,0-0.1-0.1,0-0.1c0,0,0,0.1,0,0.1l0-0.1
						c0.1,0,0.3,0,0.4-0.1c0,0,0,0.1,0.1,0.1c0.1-0.1,0.1-0.2,0.2-0.3l0.1,0.1c0,0-0.1-0.2,0-0.1c0,0,0,0,0,0.1c0.1,0,0-0.1,0.1-0.2
						l0.1,0.1c0.1,0,0-0.1,0-0.2c0-0.2,0.2,0.2,0.2,0c0-0.1-0.1-0.1-0.1-0.1c0.1,0,0-0.1,0.1-0.2c0.2,0.1,0,0,0.1,0.1l-0.1,0
						c0.1,0,0,0.1,0.1,0.1c0.1,0,0-0.1,0-0.2c0.1,0.1,0,0.1,0.1,0.1l0,0c0,0,0,0,0,0.1c0.1,0,0,0,0,0c0,0-0.1-0.1-0.1-0.1
						c0,0,0,0,0,0c-0.1-0.1,0.1-0.1,0-0.2c0,0,0,0,0,0c0,0-0.1-0.1-0.1-0.2C27.3-48.7,27.4-48.6,27.4-48.7
						C27.4-48.7,27.2-48.8,27.4-48.7C27.3-48.8,27.3-48.7,27.4-48.7z M26.5-47.6C26.4-47.6,26.4-47.6,26.5-47.6L26.5-47.6
						C26.4-47.6,26.4-47.6,26.5-47.6z M26.4-47.5C26.4-47.5,26.4-47.6,26.4-47.5C26.3-47.6,26.3-47.6,26.4-47.5
						C26.3-47.5,26.4-47.5,26.4-47.5z M26.9-47.1L26.9-47.1C26.9-47.1,26.9-47.1,26.9-47.1C26.9-47.1,26.9-47.1,26.9-47.1
						C26.9-47.1,26.9-47.1,26.9-47.1z"/>
					<polygon class="st2" points="26.9,-47.2 26.9,-47.2 26.9,-47.3 26.9,-47.2 					"/>
					<path class="st2" d="M27-52.6L27-52.6C27-52.6,27-52.6,27-52.6C27-52.6,27-52.6,27-52.6z"/>
					<polygon class="st2" points="24.6,-47.6 24.6,-47.5 24.6,-47.6 					"/>
					<path class="st2" d="M27.3-51.8C27.3-51.8,27.3-51.8,27.3-51.8C27.3-51.8,27.3-51.8,27.3-51.8z"/>
					<path class="st2" d="M27.5-51.6L27.5-51.6C27.5-51.5,27.5-51.5,27.5-51.6z"/>
					<path class="st2" d="M27.6-51.3C27.6-51.3,27.6-51.3,27.6-51.3L27.6-51.3L27.6-51.3z"/>
					<path class="st2" d="M24.4-52.6L24.4-52.6C24.4-52.5,24.4-52.5,24.4-52.6z"/>
					<path class="st2" d="M25.5-52.9C25.5-52.9,25.5-52.8,25.5-52.9C25.5-52.8,25.5-52.8,25.5-52.9z"/>
					<polygon class="st2" points="23.5,-51.9 23.5,-51.9 23.5,-51.9 					"/>
					<path class="st2" d="M25.4-52.8C25.4-52.8,25.4-52.8,25.4-52.8C25.4-52.8,25.4-52.9,25.4-52.8z"/>
					<path class="st2" d="M27.8-50.3L27.8-50.3C27.9-50.3,27.9-50.3,27.8-50.3L27.8-50.3z"/>
					<path class="st2" d="M27.9-50.3L27.9-50.3C27.9-50.3,27.9-50.3,27.9-50.3z"/>
					<path class="st2" d="M27.9-50.3L27.9-50.3C27.9-50.3,27.9-50.3,27.9-50.3z"/>
					<path class="st2" d="M27.8-50.7L27.8-50.7C27.8-50.6,27.8-50.7,27.8-50.7z"/>
					<path class="st2" d="M27.8-50.7C27.8-50.7,27.7-50.7,27.8-50.7L27.8-50.7C27.7-50.6,27.9-50.7,27.8-50.7z"/>
					<path class="st2" d="M28.1-51.3L28.1-51.3c0,0.1,0.1,0,0.1,0.1C28.3-51.4,28.1-51.2,28.1-51.3z"/>
					<path class="st2" d="M28-51.6C28.1-51.5,28.1-51.6,28-51.6C28-51.6,28-51.6,28-51.6z"/>
					<path class="st2" d="M26.5-53L26.5-53C26.5-53.1,26.5-53,26.5-53z"/>
					<polygon class="st2" points="26,-52.7 26,-52.6 26,-52.7 					"/>
					<polygon class="st2" points="25.9,-53.4 25.9,-53.4 25.9,-53.4 					"/>
					<path class="st2" d="M22.6-52.2L22.6-52.2C22.7-52.2,22.6-52.2,22.6-52.2z"/>
					<path class="st2" d="M22-50.7C21.9-50.7,21.9-50.7,22-50.7C21.9-50.7,22-50.7,22-50.7z"/>
					<polygon class="st2" points="24,-46.8 23.9,-46.8 24,-46.8 					"/>
				</g>
			</g>
			<g>
				<circle class="st2" cx="25.2" cy="-25.1" r="3"/>
				<g>
					<path class="st2" d="M27.9-25.1C28-25,28-25,27.9-25.1L27.9-25.1L27.9-25.1z"/>
					<path class="st2" d="M28.1-25.2c-0.1,0-0.2-0.1-0.3,0C28-25.2,27.9-25.2,28.1-25.2c0,0.1-0.1,0.1-0.1,0.1c0,0,0,0,0.1,0.1
						C28.1-25.1,28.1-25.2,28.1-25.2C28.1-25.2,28.1-25.2,28.1-25.2z"/>
					<path class="st2" d="M27-27.6L27-27.6C27-27.6,27-27.6,27-27.6z"/>
					<path class="st2" d="M25.4-28.3C25.4-28.3,25.4-28.3,25.4-28.3C25.4-28.3,25.4-28.3,25.4-28.3z"/>
					<path class="st2" d="M25.1-28.4C25.1-28.4,25.1-28.4,25.1-28.4C25.1-28.4,25.1-28.4,25.1-28.4z"/>
					<path class="st2" d="M27-27.6L27-27.6C27-27.7,27-27.6,27-27.6z"/>
					<path class="st2" d="M27.8-25.5C27.8-25.5,27.8-25.5,27.8-25.5L27.8-25.5L27.8-25.5z"/>
					<path class="st2" d="M27.6-27.2L27.6-27.2C27.7-27.2,27.7-27.2,27.6-27.2L27.6-27.2z"/>
					<path class="st2" d="M28-26.7c0,0-0.1,0-0.1,0C27.9-26.6,27.9-26.7,28-26.7C28-26.7,28-26.7,28-26.7z"/>
					<path class="st2" d="M28.2-25.7L28.2-25.7L28.2-25.7z"/>
					<path class="st2" d="M27.4-27.5C27.4-27.5,27.4-27.5,27.4-27.5C27.4-27.5,27.4-27.5,27.4-27.5z"/>
					<path class="st2" d="M27.6-24.5L27.6-24.5C27.7-24.5,27.6-24.5,27.6-24.5z"/>
					<polygon class="st2" points="28.2,-25.1 28.2,-25 28.3,-25 					"/>
					<path class="st2" d="M24.5-28.5L24.5-28.5C24.5-28.5,24.5-28.5,24.5-28.5z"/>
					<path class="st2" d="M21.8-24.3c0.1-0.1,0.1,0.1,0.2,0C22-24.4,21.9-24.4,21.8-24.3z"/>
					<path class="st2" d="M27.8-25.6L27.8-25.6C27.8-25.6,27.8-25.6,27.8-25.6z"/>
					<path class="st2" d="M22-24.4L22-24.4L22-24.4C22.1-24.4,22-24.4,22-24.4z"/>
					<path class="st2" d="M23.2-27.9C23.3-27.9,23.3-27.9,23.2-27.9C23.3-27.9,23.3-27.9,23.2-27.9z"/>
					<path class="st2" d="M24.2-28.2L24.2-28.2C24.2-28.2,24.2-28.2,24.2-28.2z"/>
					<path class="st2" d="M22.9-27.4C22.9-27.4,22.9-27.5,22.9-27.4C22.9-27.4,22.9-27.4,22.9-27.4C22.9-27.4,22.9-27.4,22.9-27.4z"
						/>
					<polygon class="st2" points="22.6,-27.1 22.6,-27.1 22.6,-27.1 					"/>
					<path class="st2" d="M27.1-23.4C27.2-23.4,27.2-23.4,27.1-23.4C27.2-23.4,27.2-23.4,27.1-23.4z"/>
					<path class="st2" d="M27.9-25.6C27.9-25.6,27.8-25.6,27.9-25.6C27.8-25.6,27.8-25.6,27.9-25.6C27.9-25.5,27.9-25.6,27.9-25.6z"
						/>
					<path class="st2" d="M23.5-26.9L23.5-26.9C23.4-26.8,23.4-26.8,23.5-26.9z"/>
					<path class="st2" d="M24.5-22.6L24.5-22.6C24.5-22.6,24.5-22.6,24.5-22.6z"/>
					<path class="st2" d="M23.3-26.7C23.2-26.7,23.2-26.7,23.3-26.7C23.2-26.7,23.2-26.7,23.3-26.7L23.3-26.7z"/>
					<path class="st2" d="M27.2-23.3L27.2-23.3L27.2-23.3z"/>
					<path class="st2" d="M27.4-23.7c0-0.1,0,0,0.1,0c-0.1-0.1,0.1,0-0.1-0.1c0.1,0,0.1,0,0.2,0c-0.1,0-0.1-0.1-0.2-0.2
						c0.1,0,0.1,0.1,0.3,0.1c-0.1-0.1-0.1-0.1-0.2-0.2c0,0,0.1,0,0.1,0c0,0,0,0,0,0c-0.1-0.1,0.1-0.2-0.1-0.3c0.2,0.1,0.1-0.1,0.2,0
						c0,0-0.1-0.1-0.1-0.1c0.2,0,0.1-0.1,0.1-0.1c-0.1,0,0-0.1-0.1-0.1c0,0,0,0,0.1,0c-0.1,0,0,0,0.1-0.1c0-0.1-0.1,0-0.2,0
						c0,0,0.1,0,0.2,0l-0.2-0.1c0,0,0,0,0.1,0c0,0-0.1,0,0-0.1l0,0.1l0.1,0L27.8-25c0.1-0.1,0.3-0.1,0.5-0.1l0,0
						c0.1,0,0.1,0,0.1-0.1c0,0,0.2,0.1,0.2,0.1c0,0.1-0.2,0-0.2,0.1c0,0,0.1,0.1,0.1,0.1l-0.1,0c0,0,0,0,0,0c-0.1,0,0,0.1-0.1,0.1
						l0.1,0c0.1,0.2-0.2,0.2-0.2,0.3l0.1,0.1l-0.1,0c0,0.1,0.1,0.1,0.1,0.2c-0.3,0.2-0.2,0.5-0.4,0.7c0,0,0,0,0.1,0
						c-0.3,0,0,0.5-0.3,0.5l0,0c-0.1,0.1,0,0-0.1,0c0.1,0.1,0,0.2,0,0.2c0,0,0,0,0-0.1c0,0-0.1-0.1-0.1,0c0.1,0.2-0.1,0.3-0.1,0.4
						c-0.1-0.1-0.2-0.1-0.3-0.2c0,0,0,0.1,0,0.2c-0.1,0-0.1,0-0.1,0.1c0,0,0.1,0,0.1-0.1l0,0c0,0,0,0,0,0c0,0,0,0,0,0
						c0.1,0,0,0.1,0.1,0.1c0,0-0.1,0.1-0.1,0c0,0,0,0-0.1,0c0,0,0,0,0,0l0,0c0,0,0,0,0,0c-0.1,0-0.1,0.2-0.1,0.3
						c0-0.1-0.1-0.1-0.1-0.2c0,0,0.1,0,0.2-0.1c0,0,0,0,0,0c-0.1-0.1-0.1,0.1-0.2,0.1c0,0,0,0,0-0.1c0,0-0.1,0.1,0,0.1
						c0-0.1-0.1-0.1-0.2-0.1c0,0.1,0,0.1-0.1,0.1l0-0.1c-0.1,0,0,0.1-0.1,0.1c0,0,0,0,0-0.1c-0.1,0.1-0.1,0.1-0.1,0.2l0-0.1
						c-0.1,0.1-0.2,0.2-0.2,0.1c0.1,0.2-0.2,0.1-0.2,0.1c0,0,0-0.1,0-0.1c-0.1,0.1-0.3,0-0.4,0l0-0.2c-0.1,0-0.1,0.3-0.2,0.3l0-0.1
						c-0.1,0-0.2,0-0.3-0.1l0-0.1c0,0-0.1,0-0.1,0.1c0-0.3-0.4,0-0.5-0.3l-0.1,0.2c-0.1,0-0.2,0-0.1-0.2l0,0c0.1-0.1-0.1,0-0.1-0.1
						c0,0-0.1,0.1-0.1,0.1c-0.1-0.2-0.4-0.2-0.4-0.4c-0.2,0-0.4,0-0.5-0.2l0,0c0-0.1-0.1-0.2,0-0.3c-0.1-0.1-0.3,0-0.4-0.2l0.1,0
						c0-0.1-0.1-0.1-0.1-0.1c0,0,0,0,0,0c0-0.1-0.1,0-0.1-0.1l0.1,0c0-0.2-0.3-0.2-0.3-0.4c0,0,0.1,0,0.1,0c-0.2,0-0.2-0.2-0.3-0.2
						l0.1,0c-0.2-0.1,0.1-0.2,0-0.3L21.8-24c0-0.1,0-0.1-0.1-0.1c0-0.1,0.1,0,0.1-0.1c0,0,0,0.1,0.1,0l0.1-0.2c0,0,0,0,0-0.1
						c-0.2,0.1,0-0.1-0.2,0c0-0.2,0.1-0.4,0-0.5c0.2-0.1,0-0.3,0.3-0.3c0-0.1,0-0.2-0.1-0.2c0,0,0,0,0,0.1c-0.1,0-0.1-0.1-0.1-0.2
						c0.1,0.1,0.1,0.2,0.2,0.2c0-0.1-0.1-0.2-0.1-0.2l0.1,0c-0.1-0.1,0.1,0,0-0.1l0,0c0-0.1-0.1-0.1-0.1-0.3l0.1,0
						c0,0-0.1-0.1,0.1-0.1l0,0.1c0.1,0,0.2,0,0.2,0c0-0.1-0.1-0.1-0.1-0.1c0.1,0,0,0,0.1,0.1c0-0.1,0-0.2-0.1-0.3c0,0,0,0,0,0
						c0.1-0.1-0.1-0.2,0-0.2l0,0c0.1,0,0-0.2,0.2-0.1c0.1,0,0,0.1,0.1,0.1c0.1,0-0.1-0.2,0-0.2c0,0,0,0,0,0c0-0.1,0.1-0.1,0.1-0.2
						c0.2,0,0.2-0.2,0.4-0.2c-0.1,0,0-0.1-0.1-0.1c0,0,0,0,0,0c0,0,0-0.1,0-0.1c0.1,0,0-0.1,0.1-0.1c0,0,0,0,0-0.1
						c0,0.1,0.1,0.1,0.1,0.2c0.1-0.1,0-0.2,0.1-0.3l0.1,0c-0.1-0.1,0-0.1,0-0.2c0,0,0.1,0,0.1,0.1c0-0.1,0.1,0,0.1-0.1l-0.1,0
						c0.1,0,0.1-0.2,0.3-0.2l0.1,0.2c0.1,0,0.1-0.2,0.2-0.1c0-0.1,0,0,0-0.1c0,0-0.1,0.1-0.1,0.1l0-0.2L23.7-28c0-0.1,0-0.1,0-0.1
						c0.1-0.1,0.1,0,0.2-0.1c0,0,0,0.1,0.1,0.1c0-0.1,0.2,0.1,0.2,0c0,0,0,0,0,0.1c0,0,0.1,0,0.1-0.1l0,0c0,0,0-0.1,0.1-0.1
						c0-0.1,0-0.2,0-0.2c0,0,0.1,0,0.1,0.1c0.1,0,0-0.2,0.1-0.2c0,0,0,0,0,0c0,0,0.1,0,0.1,0c-0.1,0,0.1,0.2-0.1,0.1
						c0,0.1,0.1,0,0.1,0c0-0.1,0-0.2,0-0.2c0,0,0,0,0.1,0l0-0.1c0,0,0,0,0.1,0l0,0c0.1,0,0.1,0.1,0.2,0c0,0-0.1,0.1,0,0.1
						c0.1-0.1,0,0,0.1,0.1c0.1,0,0-0.2,0.1-0.1c0,0,0,0,0-0.1c0.1,0,0.1,0,0.2,0c0,0-0.1-0.1,0-0.1c0,0.1,0.1,0.1,0.1,0.1l0,0
						c0,0,0,0.1,0,0.1c0,0,0,0,0,0c0,0,0,0.2,0,0.2c0.1,0,0.1-0.1,0.1-0.2c0.1,0.1,0.1-0.2,0.2-0.1c0,0,0.1,0.2,0.1,0.2
						c0.1-0.1-0.1-0.1,0-0.2c0.1,0.3,0.3-0.1,0.4,0.1l-0.1,0.1c0,0,0.1,0,0.1,0l0-0.1c0,0,0.1,0,0.1,0.1c0.1-0.1,0.1,0,0.2,0
						c-0.1,0,0,0-0.1,0c0.1,0.1,0.1,0.1,0.1,0c0,0,0,0.1,0,0.1c0.1,0,0.2,0,0.2,0l0,0c0.1,0,0.2,0.2,0.3,0.2l0,0l0,0l0,0l0,0
						c0-0.1,0.1,0,0.2,0c0,0,0,0.1,0,0.1c0.1-0.1,0.1,0,0.1,0c0,0.1-0.1,0.1,0,0.1c0,0,0.1,0,0.1-0.1c0,0.1,0,0.1,0,0.1c0,0,0,0,0,0
						c0,0,0,0-0.1,0.1c0,0,0.1-0.1,0.1,0l-0.1,0c0,0,0,0,0,0c0,0-0.1,0.1-0.1,0.1c0.1,0,0.2-0.1,0.2-0.2c0,0.1,0.1,0.1,0.2,0.1
						l-0.1,0.1c0,0,0.1,0,0.1,0l0,0c0,0-0.1,0-0.1,0.1c0.1,0,0.1,0.1,0.2,0l0,0c0,0.1,0.1,0.2,0,0.3c0.1,0,0.1,0.2,0.2,0.1
						c0.1,0-0.1,0.2,0.1,0.1c-0.1,0.1,0,0-0.1,0c-0.1,0.1,0.2,0,0,0.1c0.1,0,0,0,0.1,0c-0.1,0.1,0,0.1,0,0.2c0.1,0,0,0,0.1,0
						c0,0,0,0,0,0.1l0.1,0L27.9-26c0.2,0,0.2-0.1,0.3,0l0,0c-0.1,0.1,0.1,0.1,0,0.2c0,0-0.1,0-0.1,0l0.1,0c0,0,0,0,0,0
						c-0.1,0.1,0.1,0,0,0.1c0,0-0.1,0-0.1,0l0.1,0l-0.1,0c0,0.1,0.2,0.1,0.1,0.2l0,0c0,0-0.1,0-0.1,0.1c0,0,0.1,0,0.1,0l0,0
						c-0.1,0-0.1-0.1-0.2-0.1c0,0,0.1,0,0.1,0c0,0-0.1-0.1-0.1-0.1c0,0,0.1,0,0.1,0c0-0.1-0.1,0-0.1-0.1c0,0,0.1,0,0.1,0
						c0,0-0.1-0.1,0-0.1c0,0,0.1,0,0.1,0c-0.1-0.1-0.2-0.1-0.3-0.1c-0.2,0,0-0.2-0.1-0.3c0,0,0,0.1-0.1,0c0.1,0,0,0,0.1-0.1
						c-0.1,0,0-0.1-0.1-0.1c0,0,0,0,0.1-0.1c0.1,0,0-0.1,0.2-0.1c-0.2,0,0-0.2-0.3-0.1l0,0l0-0.1l0,0c0,0,0,0,0-0.1c0,0,0.1,0,0.1,0
						c0.1-0.1-0.1,0-0.2-0.1c0.1,0,0.1,0,0.1,0c0,0-0.1,0-0.1,0l0,0c0-0.1-0.2,0.1-0.1,0c0,0,0,0-0.1,0c0,0,0-0.1,0.1-0.1
						c0,0-0.1,0-0.1,0c0,0.1,0,0-0.1,0.1l-0.1-0.1c0,0,0,0,0,0c0.1-0.3-0.3-0.1-0.3-0.4c0,0.1,0,0-0.1,0.1c0,0-0.1-0.1-0.1-0.1l0,0
						c-0.1,0-0.3,0-0.3-0.1c0,0,0-0.1,0.1-0.1c-0.1,0.1,0-0.2-0.1-0.1l0,0c-0.1-0.1-0.3,0-0.4,0c0-0.1,0.1,0,0.1-0.1
						c-0.1-0.1-0.2,0-0.3-0.1c0,0,0,0,0,0c-0.1-0.1,0,0.1-0.1,0.1c0-0.1,0-0.1,0-0.1l0,0.1c0,0,0-0.1,0-0.1c-0.1,0.1-0.1,0-0.2,0.1
						c0,0,0-0.1,0-0.2c0,0-0.1,0-0.1,0l0,0c0-0.1-0.1-0.1-0.1-0.1c-0.1,0,0,0.1-0.1,0.1l0.1,0.1l-0.1,0l0-0.1c0,0-0.1,0-0.2,0l0,0.1
						c0,0,0,0-0.1,0c0-0.1-0.1,0,0-0.2c-0.1-0.1-0.2,0.1-0.3,0.1c0,0,0,0,0,0c-0.1,0-0.1,0.1-0.1,0.1c0,0,0-0.1,0-0.1
						c-0.1,0,0,0.1-0.1,0.1c0-0.1,0-0.1,0-0.1c0,0,0,0.1,0,0.1c0-0.3-0.1-0.1-0.1-0.3c0,0.1-0.1,0.2,0,0.3l0,0c0,0.1,0,0,0,0.1
						c0,0,0,0,0,0c-0.1,0.1-0.2,0.1-0.3,0.2c0,0,0-0.1,0-0.1c-0.1,0-0.1,0.2-0.2,0.3c-0.1-0.1,0.1-0.1,0-0.2
						c-0.1,0.1-0.2,0.2-0.3,0.4c-0.2-0.2,0,0.2-0.2,0.1c0.1,0.1,0,0.1,0,0.1c0-0.1-0.1,0-0.1-0.1c0,0.1,0,0.2-0.2,0.1
						c0.1,0.1-0.1,0.1,0,0.2c-0.1,0,0,0.1-0.1,0.1c0.1,0,0,0.1,0,0.1c0,0,0,0,0,0c-0.1,0,0,0.1,0,0.1c0,0-0.1-0.1-0.1,0
						c0.1,0,0.1,0.2,0,0.2c0,0,0,0,0-0.1c0,0.2-0.2,0.3-0.1,0.5l-0.1-0.1c-0.2,0.1,0.2,0.1,0.1,0.2c-0.1,0.2-0.3,0.5-0.2,0.7
						c0,0,0,0,0.1,0c0,0-0.1,0,0,0.1l0.1,0c-0.2,0.1,0.1,0.3-0.1,0.4c0.1,0.1,0,0.2,0.2,0.3c0,0.1-0.1,0-0.1,0l0.1,0.1l0,0
						c0.2,0-0.1,0.4,0.1,0.4l0,0c0,0-0.1,0.1,0,0.1c0,0,0,0,0.1-0.1c0.1,0.1,0.2,0.1,0.2,0.2c-0.1,0,0,0.1-0.1,0.1
						c0.1,0,0.1-0.1,0.1-0.1c0.1,0.1,0.1,0.2,0.1,0.2c0.1,0,0.1,0,0.2-0.1c0.1,0.1,0.1,0.1,0.2,0.1l0,0c0.1-0.1,0,0.1,0.1,0.1
						c0,0,0,0-0.1,0.1l0.1,0c0,0-0.1,0.1-0.1,0.1c0.1,0,0-0.1,0.1-0.1l-0.1,0.1c0,0,0.1-0.1,0.1-0.1c0.1,0.1,0.2,0.1,0.3,0.1l0,0.1
						c0.1,0,0.1,0,0.1,0.1c0,0,0-0.1,0-0.1c0.1-0.1,0,0.1,0.1,0c0,0-0.1,0-0.1,0.1l0.2,0c0,0.1,0,0.2,0.1,0.2c0,0,0-0.1,0-0.1l0,0
						l0,0.1l0.1-0.1l0,0.1c0,0,0.1-0.1,0.1-0.1c0.1,0.1,0.1,0.1,0.2,0.2c0-0.2,0.1,0,0.2-0.1c0.1,0.2,0.3,0.1,0.5,0.1l0,0
						c0.1,0.1,0.1-0.2,0.1-0.1l0,0c0.1,0.1,0.3,0,0.3-0.1c0,0,0,0.1,0,0.1c0,0-0.1-0.1,0-0.1c0,0,0,0.1,0,0.1l0-0.1
						c0.1,0,0.3,0,0.4-0.1c0,0,0,0.1,0.1,0.1c0.1-0.1,0.1-0.2,0.2-0.3l0.1,0.1c0,0-0.1-0.2,0-0.1c0,0,0,0,0,0.1c0.1,0,0-0.1,0.1-0.2
						l0.1,0.1c0.1,0,0-0.1,0-0.2c0-0.2,0.2,0.2,0.2,0c0-0.1-0.1-0.1-0.1-0.1c0.1,0,0-0.1,0.1-0.2c0.2,0.1,0,0,0.1,0.1l-0.1,0
						c0.1,0,0,0.1,0.1,0.1c0.1,0,0-0.1,0-0.2c0.1,0.1,0,0.1,0.1,0.1l0,0c0,0,0,0,0,0.1c0.1,0,0,0,0,0c0,0-0.1-0.1-0.1-0.1
						c0,0,0,0,0,0c-0.1-0.1,0.1-0.1,0-0.2c0,0,0,0,0,0c0,0-0.1-0.1-0.1-0.2C27.3-23.7,27.4-23.6,27.4-23.7
						C27.4-23.7,27.2-23.8,27.4-23.7C27.3-23.8,27.3-23.7,27.4-23.7z M26.5-22.6C26.4-22.6,26.4-22.6,26.5-22.6L26.5-22.6
						C26.4-22.6,26.4-22.6,26.5-22.6z M26.4-22.5C26.4-22.5,26.4-22.6,26.4-22.5C26.3-22.6,26.3-22.6,26.4-22.5
						C26.3-22.5,26.4-22.5,26.4-22.5z M26.9-22.1L26.9-22.1C26.9-22.1,26.9-22.1,26.9-22.1C26.9-22.1,26.9-22.1,26.9-22.1
						C26.9-22.1,26.9-22.1,26.9-22.1z"/>
					<polygon class="st2" points="26.9,-22.2 26.9,-22.2 26.9,-22.3 26.9,-22.2 					"/>
					<path class="st2" d="M27-27.6L27-27.6C27-27.6,27-27.6,27-27.6C27-27.6,27-27.6,27-27.6z"/>
					<polygon class="st2" points="24.6,-22.6 24.6,-22.5 24.6,-22.6 					"/>
					<path class="st2" d="M27.3-26.8C27.3-26.8,27.3-26.8,27.3-26.8C27.3-26.8,27.3-26.8,27.3-26.8z"/>
					<path class="st2" d="M27.5-26.6L27.5-26.6C27.5-26.5,27.5-26.5,27.5-26.6z"/>
					<path class="st2" d="M27.6-26.3C27.6-26.3,27.6-26.3,27.6-26.3L27.6-26.3L27.6-26.3z"/>
					<path class="st2" d="M24.4-27.6L24.4-27.6C24.4-27.5,24.4-27.5,24.4-27.6z"/>
					<path class="st2" d="M25.5-27.9C25.5-27.9,25.5-27.8,25.5-27.9C25.5-27.8,25.5-27.8,25.5-27.9z"/>
					<polygon class="st2" points="23.5,-26.9 23.5,-26.9 23.5,-26.9 					"/>
					<path class="st2" d="M25.4-27.8C25.4-27.8,25.4-27.8,25.4-27.8C25.4-27.8,25.4-27.9,25.4-27.8z"/>
					<path class="st2" d="M27.8-25.3L27.8-25.3C27.9-25.3,27.9-25.3,27.8-25.3L27.8-25.3z"/>
					<path class="st2" d="M27.9-25.3L27.9-25.3C27.9-25.3,27.9-25.3,27.9-25.3z"/>
					<path class="st2" d="M27.9-25.3L27.9-25.3C27.9-25.3,27.9-25.3,27.9-25.3z"/>
					<path class="st2" d="M27.8-25.7L27.8-25.7C27.8-25.6,27.8-25.7,27.8-25.7z"/>
					<path class="st2" d="M27.8-25.7C27.8-25.7,27.7-25.7,27.8-25.7L27.8-25.7C27.7-25.6,27.9-25.7,27.8-25.7z"/>
					<path class="st2" d="M28.1-26.3L28.1-26.3c0,0.1,0.1,0,0.1,0.1C28.3-26.4,28.1-26.2,28.1-26.3z"/>
					<path class="st2" d="M28-26.6C28.1-26.5,28.1-26.6,28-26.6C28-26.6,28-26.6,28-26.6z"/>
					<path class="st2" d="M26.5-28L26.5-28C26.5-28.1,26.5-28,26.5-28z"/>
					<polygon class="st2" points="26,-27.7 26,-27.6 26,-27.7 					"/>
					<polygon class="st2" points="25.9,-28.4 25.9,-28.4 25.9,-28.4 					"/>
					<path class="st2" d="M22.6-27.2L22.6-27.2C22.7-27.2,22.6-27.2,22.6-27.2z"/>
					<path class="st2" d="M22-25.7C21.9-25.7,21.9-25.7,22-25.7C21.9-25.7,22-25.7,22-25.7z"/>
					<polygon class="st2" points="24,-21.8 23.9,-21.8 24,-21.8 					"/>
				</g>
			</g>
			<rect x="25.2" y="-50" class="st1" width="25" height="25"/>
			<rect x="0.1" y="-50" class="st1" width="25" height="25"/>
		</g>
	</g>
</pattern>
<g id="Layer_2">
	<g>
		<rect class="st16" width="100" height="100"/>
	</g>
</g>
<g id="Layer_1">
</g>
<g id="Layer_4">
</g>
<g id="Layer_5">
</g>
<g id="colors" class="st75">
</g>
</svg>
